<?xml version="1.0" encoding="UTF-8"?>
<svg version="1.1" xmlns="http://www.w3.org/2000/svg" width="2000" height="2000">
<path d="M0 0 C1.7425336 -0.00726339 3.48505444 -0.01847573 5.22754025 -0.03328422 C10.03833122 -0.0626353 14.84743687 -0.03561885 19.65812368 0.00021862 C24.88297466 0.02927343 30.10763169 0.00623066 35.33250117 -0.01031047 C44.49695379 -0.03208253 53.660892 -0.02028575 62.82530212 0.0132513 C76.45251297 0.06298216 90.07937555 0.06131421 103.70665422 0.04904077 C126.62839126 0.02990074 149.54984231 0.05292963 172.47151566 0.10031605 C195.17485416 0.14714929 217.87809786 0.17625397 240.58148575 0.18124485 C241.63887393 0.18149118 241.63887393 0.18149118 242.7176235 0.18174248 C249.15600633 0.18324049 255.59438918 0.18454216 262.0327721 0.18559815 C278.03852958 0.18824 294.04428534 0.19381428 310.0500412 0.20145226 C310.77893845 0.20179819 311.5078357 0.20214412 312.25882075 0.20250053 C347.72195104 0.21960465 383.18502221 0.27085474 418.64811325 0.32419872 C467.96908023 0.39836227 517.2899843 0.44793266 566.61100388 0.46775341 C568.14594694 0.46837652 569.68089001 0.46900037 571.21583307 0.46962495 C578.86937491 0.47273395 586.52291677 0.47579189 594.17645864 0.47882713 C594.93178478 0.47912689 595.68711092 0.47942664 596.46532573 0.47973548 C600.27291366 0.48124432 604.08050159 0.48274091 607.88808953 0.48421701 C656.32941991 0.50304852 704.77073903 0.53894311 753.21205522 0.58000821 C753.91390103 0.58060287 754.61574684 0.58119752 755.33886071 0.58181019 C756.39109826 0.58270178 756.39109826 0.58270178 757.46459313 0.58361137 C758.16574876 0.58420534 758.8669044 0.58479932 759.58930717 0.58541129 C761.00456624 0.5866103 762.41982531 0.58781024 763.83508438 0.58901111 C773.77771913 0.59742877 783.72035421 0.60513669 793.66298995 0.61230186 C824.23525929 0.63438174 854.80749817 0.66233546 885.37974027 0.71039555 C897.73415619 0.72969828 910.08855619 0.74604141 922.44298553 0.75348186 C932.67714321 0.75966429 942.91126361 0.77242551 953.14540006 0.79443596 C958.30464877 0.80534603 963.46384959 0.8130455 968.62311092 0.81214169 C973.30681194 0.81140318 977.99040216 0.81970949 982.6740756 0.83556519 C984.36728297 0.8396657 986.06050254 0.84034561 987.75371227 0.83737863 C990.0359023 0.83386135 992.31772344 0.8424329 994.5998776 0.85426408 C995.8685294 0.85596578 997.1371812 0.85766747 998.444277 0.85942074 C1001.36881638 1.11301708 1001.36881638 1.11301708 1003.36881638 3.11301708 C1003.72833322 8.80864252 1003.01647655 13.8447161 1001.72428513 19.37473583 C1001.46860512 20.50526127 1001.46860512 20.50526127 1001.20775986 21.6586256 C1000.84799224 23.2385584 1000.48389634 24.81751138 1000.11564255 26.39548779 C999.5560213 28.80178589 999.0153064 31.21180713 998.47623825 33.62278271 C998.12254426 35.1653585 997.76776378 36.70768566 997.41178513 38.24973583 C997.25227875 38.96441525 997.09277237 39.67909466 996.92843246 40.41543102 C995.96339264 44.48538157 995.01472442 47.84776812 992.36881638 51.11301708 C989.26247087 51.73731824 989.26247087 51.73731824 985.33642381 51.7363109 C984.61132803 51.74294979 983.88623224 51.74958868 983.13916386 51.75642876 C980.68517789 51.77270478 978.23275839 51.75304884 975.77881145 51.73384285 C974.0039741 51.7381445 972.22914094 51.74463954 970.45431873 51.75314108 C965.54023127 51.77023498 960.62664605 51.75588615 955.7125843 51.73675077 C950.38055517 51.72144125 945.04858988 51.73498869 939.71655899 51.7449699 C930.35934009 51.75845122 921.00227396 51.75322591 911.6450634 51.73596096 C897.73103042 51.71035881 883.81710672 51.7132394 869.9030582 51.72200354 C846.50007622 51.73589043 823.09716432 51.72620369 799.69419289 51.70279789 C776.51110869 51.67965703 753.3280528 51.66595958 730.14495659 51.66528034 C728.69049413 51.66522663 727.23603167 51.66517264 725.78156921 51.66511838 C719.93706738 51.66492004 714.09256556 51.66480064 708.24806373 51.66477605 C691.90917704 51.6646919 675.57029073 51.66295485 659.2314043 51.66002274 C658.48730155 51.65989007 657.74319879 51.65975741 656.97654747 51.65962073 C619.98183743 51.6528599 582.98714448 51.62582233 545.99244515 51.59833036 C496.41615643 51.56151747 446.83989416 51.54136193 397.26359177 51.53855419 C395.69655804 51.53846219 394.12952432 51.53836976 392.56249059 51.53827691 C389.43216647 51.53809209 386.30184235 51.53790936 383.17151823 51.53772873 C376.15309496 51.53732365 369.13467169 51.53691308 362.11624843 51.53648261 C360.56186304 51.53638804 359.00747766 51.53629525 357.45309228 51.53620424 C315.95546665 51.5337646 274.45784497 51.52120302 232.96022278 51.50454575 C232.2360222 51.50425525 231.51182162 51.50396476 230.76567557 51.50366546 C224.21237453 51.50103247 217.6590735 51.4983853 211.10577251 51.4956531 C195.16289402 51.48901415 179.22001623 51.48332059 163.27713656 51.48046279 C162.19834272 51.4802668 162.19834272 51.4802668 161.09775507 51.48006685 C158.19904483 51.4795403 155.3003346 51.47901739 152.40162436 51.47849469 C125.53669512 51.47362429 98.67178582 51.46207186 71.80686646 51.43758582 C57.96776736 51.42514326 44.12869111 51.41814051 30.28958629 51.4189282 C21.06237768 51.41889059 11.83519358 51.41162739 2.60799463 51.39830154 C-2.66048208 51.39088942 -7.92890933 51.38671413 -13.1973905 51.39117735 C-17.98023014 51.39515656 -22.76296756 51.39010016 -27.54579148 51.37750367 C-29.27489867 51.37458511 -31.00401548 51.37509122 -32.73312013 51.37924755 C-35.06358613 51.38437025 -37.39369883 51.37739906 -39.72414023 51.36716741 C-41.66743188 51.36595731 -41.66743188 51.36595731 -43.64998195 51.36472275 C-46.63118362 51.11301708 -46.63118362 51.11301708 -48.63118362 49.11301708 C-48.53930332 42.84984282 -46.29396444 39.74047915 -42.38118362 35.23801708 C-41.288206 33.9270421 -40.19713155 32.6144786 -39.10774612 31.30051708 C-38.53830276 30.61989208 -37.96885941 29.93926708 -37.38216019 29.23801708 C-34.41747399 25.64004878 -31.58610736 21.94229989 -28.75618362 18.23801708 C-28.23379105 17.5614204 -27.71139847 16.88482372 -27.17317581 16.18772411 C-26.66689651 15.52627392 -26.16061722 14.86482372 -25.63899612 14.18332958 C-25.15537823 13.56701202 -24.67176033 12.95069446 -24.17348735 12.31570061 C-22.56837245 10.17640452 -22.56837245 10.17640452 -21.60964198 7.78590513 C-17.19632043 -1.44691981 -8.94937202 -0.13186919 0 0 Z " fill="#000000" transform="translate(70.63118362426758,1056.8869829177856)"/>
<path d="M0 0 C1.61749649 0.00081573 1.61749649 0.00081573 3.26766968 0.00164795 C39.71884669 0.08608431 76.92577413 5.16209671 104.7109375 30.96875 C118.66036714 45.24258498 123.66540628 63.94975251 123.5 83.4375 C123.48864014 85.33495972 123.48864014 85.33495972 123.47705078 87.27075195 C123.29006169 98.02262485 121.97501577 108.03490407 119.0625 118.375 C118.84819336 119.14344238 118.63388672 119.91188477 118.41308594 120.70361328 C107.94192192 157.09357557 84.33576916 183.42362015 52.25 202.5625 C26.41511801 216.85041442 -5.06132694 226.62613653 -34.74023438 226.48852539 C-35.58020966 226.48867142 -36.42018494 226.48881744 -37.28561401 226.4889679 C-40.03418654 226.48827683 -42.78268946 226.48052256 -45.53125 226.47265625 C-47.44795698 226.4707892 -49.36466444 226.46936665 -51.28137207 226.46836853 C-56.30531145 226.46456595 -61.32922154 226.45475512 -66.35314941 226.44366455 C-71.48803308 226.43340169 -76.62292152 226.4288605 -81.7578125 226.42382812 C-91.81772115 226.41313068 -101.87760813 226.3960816 -111.9375 226.375 C-111.46954827 221.23192812 -110.86480626 216.41265445 -109.27368164 211.47460938 C-108.75923241 209.85619141 -108.75923241 209.85619141 -108.23439026 208.20507812 C-107.85926804 207.05458984 -107.48414581 205.90410156 -107.09765625 204.71875 C-106.49422425 202.83189798 -105.89079318 200.94504567 -105.28739834 199.05818176 C-104.64330174 197.04969831 -103.99502513 195.04260947 -103.34545898 193.03588867 C-101.97634933 188.80593892 -100.61901723 184.57226766 -99.26367188 180.33789062 C-97.86280331 175.96293737 -96.46130326 171.5881939 -95.05581665 167.21472168 C-91.001168 154.59676144 -87.00288163 141.96151441 -83.0223999 129.31994629 C-77.92992605 113.14951538 -72.8179152 96.98531262 -67.68359375 80.828125 C-67.46182087 80.13012787 -67.24004799 79.43213074 -67.01155472 78.71298218 C-65.05316166 72.54926973 -63.09475676 66.38556126 -61.13305664 60.22290039 C-59.94074799 56.47698581 -58.74946898 52.73074551 -57.55859375 48.984375 C-56.98762466 47.1902417 -56.98762466 47.1902417 -56.40512085 45.35986328 C-54.37831814 38.97514644 -52.37997856 32.58274003 -50.41845703 26.17773438 C-50.21209279 25.50561543 -50.00572855 24.83349648 -49.79311085 24.14101028 C-48.80034375 20.90759141 -47.81228072 17.6729928 -46.83287048 14.43548584 C-46.4820491 13.29049622 -46.13122772 12.14550659 -45.76977539 10.96582031 C-45.46326553 9.95594055 -45.15675568 8.94606079 -44.84095764 7.90557861 C-43.9375 5.375 -43.9375 5.375 -41.9375 2.375 C-39.33430141 1.80766839 -36.94734513 1.45241736 -34.30859375 1.2109375 C-33.11924477 1.09218765 -33.11924477 1.09218765 -31.90586853 0.97103882 C-21.29136208 0.01028779 -10.64998567 -0.02024265 0 0 Z M-4.9375 50.375 C-11.46183986 71.14966448 -17.72747808 91.9935307 -23.88226318 112.88024902 C-25.01877758 116.73511823 -26.15802978 120.58917827 -27.296875 124.44335938 C-29.2527879 131.06436618 -31.20468109 137.68654603 -33.15275955 144.30986214 C-34.48008282 148.82251818 -35.81126158 153.33402285 -37.14355469 157.84521484 C-37.79121949 160.04648951 -38.43869444 162.24782004 -39.0859375 164.44921875 C-39.37997467 165.44202347 -39.67401184 166.43482819 -39.97695923 167.4577179 C-40.23899139 168.35169785 -40.50102356 169.2456778 -40.77099609 170.16674805 C-41.11183731 171.32330147 -41.11183731 171.32330147 -41.45956421 172.5032196 C-42.01996666 174.37599873 -42.01996666 174.37599873 -41.9375 176.375 C-13.66603456 177.99515884 -13.66603456 177.99515884 13.0625 170.375 C14.39697365 169.75355876 15.73161186 169.13247077 17.06640625 168.51171875 C25.28433088 164.5318866 32.29698325 159.53565267 39.0625 153.375 C39.71734375 152.78976562 40.3721875 152.20453125 41.046875 151.6015625 C54.9797639 138.47012296 63.51954173 118.89350603 64.30078125 99.8359375 C64.58440051 86.85940268 63.90108468 75.70385799 55.08984375 65.40234375 C42.25579865 52.56829865 24.5476308 49.26723257 7 49.1875 C2.85048068 49.20964258 -0.88814378 49.51137281 -4.9375 50.375 Z " fill="#000000" transform="translate(404.9375,807.625)"/>
<path d="M0 0 C0.76200211 -0.0065712 1.52400421 -0.0131424 2.30909729 -0.01991272 C4.81967292 -0.03954299 7.33018868 -0.05129214 9.84082031 -0.0612793 C10.70648872 -0.06535482 11.57215714 -0.06943035 12.46405792 -0.07362938 C17.0559515 -0.09445748 21.64781558 -0.1087671 26.23974609 -0.11816406 C30.93277765 -0.12915571 35.62532552 -0.16348007 40.31818771 -0.20333576 C43.96814721 -0.22977113 47.61799677 -0.23787996 51.26804352 -0.24144554 C52.99483719 -0.24625106 54.72162805 -0.25768717 56.44832611 -0.27648354 C77.56740848 -0.49188945 99.59268129 3.39188902 116.01269531 17.79418945 C125.70557556 28.12996482 127.76650643 41.95297202 127.48144531 55.5012207 C127.20425835 61.28865348 125.83949938 66.03681324 123.16894531 71.17700195 C122.76804687 71.98911133 122.36714844 72.8012207 121.95410156 73.63793945 C112.98769469 90.11533643 97.20913886 101.2322352 81.16894531 110.17700195 C81.80960938 110.71067383 82.45027344 111.2443457 83.11035156 111.79418945 C92.96942336 120.28680272 100.65869109 130.10960382 103.16894531 143.17700195 C104.52852572 162.76833274 98.21090515 178.83251082 85.33691406 193.75512695 C84.26376953 194.95395508 84.26376953 194.95395508 83.16894531 196.17700195 C82.62882812 196.8112207 82.08871094 197.44543945 81.53222656 198.09887695 C65.07133914 216.17682889 38.56062517 222.34054607 15.16894531 224.17700195 C7.65341271 224.5081166 0.1271386 224.41159027 -7.39355469 224.37231445 C-9.52302923 224.36857492 -11.65250552 224.36573241 -13.78198242 224.36373901 C-19.33191854 224.3561765 -24.8817466 224.33659321 -30.43164062 224.31433105 C-36.11684712 224.29371177 -41.80207142 224.28470323 -47.48730469 224.2746582 C-58.60193497 224.25333889 -69.71648577 224.2192944 -80.83105469 224.17700195 C-79.91865516 214.74408175 -79.91865516 214.74408175 -78.55371094 210.30004883 C-78.29309372 209.43766602 -78.0324765 208.5752832 -77.76396179 207.68676758 C-77.47672745 206.76573242 -77.1894931 205.84469727 -76.89355469 204.89575195 C-76.58621902 203.88770508 -76.27888336 202.8796582 -75.9622345 201.84106445 C-74.92624261 198.45062093 -73.878654 195.06387538 -72.83105469 191.67700195 C-72.07740986 189.21951393 -71.32441889 186.76182531 -70.57202148 184.30395508 C-68.23603921 176.68049041 -65.88410285 169.06198008 -63.53099823 161.44378662 C-62.33002173 157.55439418 -61.13066161 153.66450335 -59.93115234 149.7746582 C-55.77742781 136.30627687 -51.6216815 122.83852484 -47.45776367 109.37329102 C-42.07953574 91.97802263 -36.72079198 74.57711479 -31.40917969 57.16137695 C-31.15217978 56.31892426 -30.89517986 55.47647156 -30.63039207 54.60848999 C-28.16663847 46.53169406 -25.70515701 38.45421504 -23.25011253 30.3747673 C-22.36231528 27.454372 -21.47287042 24.53448018 -20.58307648 21.61469269 C-20.17324728 20.26831748 -19.76421271 18.92170009 -19.35604095 17.57482147 C-18.79962452 15.73882 -18.24033649 13.90368952 -17.6809082 12.06860352 C-17.36992691 11.0449469 -17.05894562 10.02129028 -16.73854065 8.96661377 C-16.2893351 7.58575592 -16.2893351 7.58575592 -15.83105469 6.17700195 C-15.58665146 5.25111267 -15.34224823 4.32522339 -15.09043884 3.37127686 C-13.83105469 1.17700195 -13.83105469 1.17700195 -11.19549561 0.37556458 C-7.46032292 0.1551221 -3.7407705 0.01421587 0 0 Z M26.16894531 49.17700195 C25.26682019 51.01321149 25.26682019 51.01321149 24.63500977 53.06591797 C24.37496658 53.84004532 24.1149234 54.61417267 23.84700012 55.41175842 C23.44368721 56.65873756 23.44368721 56.65873756 23.03222656 57.9309082 C22.74792282 58.78756577 22.46361908 59.64422333 22.17070007 60.52684021 C21.57239338 62.33518895 20.97840106 64.14497006 20.38842773 65.95605469 C19.48280064 68.73534259 18.56438395 71.51013999 17.64355469 74.28442383 C17.06402871 76.04133809 16.48522763 77.79849167 15.90722656 79.5559082 C15.63227859 80.38925186 15.35733063 81.22259552 15.0740509 82.08119202 C13.68035107 86.04618271 13.68035107 86.04618271 13.16894531 90.17700195 C24.67105449 94.01103834 41.30265089 92.29899976 52.16894531 87.17700195 C60.35415538 83.07816769 64.88962535 77.3572746 68.54394531 69.05200195 C69.58183822 64.27769457 69.70005834 60.60262114 67.98144531 55.98950195 C64.37367677 50.39124043 60.1402299 48.2948231 53.82519531 46.71606445 C48.93075933 45.99444889 44.11139629 45.84736095 39.16894531 45.80200195 C38.23630859 45.78814453 37.30367187 45.77428711 36.34277344 45.76000977 C35.46041016 45.76613281 34.57804687 45.77225586 33.66894531 45.77856445 C32.87488281 45.78194824 32.08082031 45.78533203 31.26269531 45.78881836 C28.60739773 46.2811135 27.90407538 47.14129504 26.16894531 49.17700195 Z M1.16894531 134.17700195 C0.26312291 136.10885737 0.26312291 136.10885737 -0.36499023 138.28125 C-0.62503342 139.10187424 -0.8850766 139.92249847 -1.15299988 140.76799011 C-1.55631279 142.09000175 -1.55631279 142.09000175 -1.96777344 143.4387207 C-2.25207718 144.3445137 -2.53638092 145.2503067 -2.82929993 146.18354797 C-3.73449781 149.07454427 -4.62665767 151.96937783 -5.51855469 154.86450195 C-6.13032995 156.8263573 -6.74295009 158.7879494 -7.35644531 160.74926758 C-8.85779922 165.55551369 -10.34747336 170.36524159 -11.83105469 175.17700195 C-0.32894551 179.01103834 16.30265089 177.29899976 27.16894531 172.17700195 C35.35415538 168.07816769 39.88962535 162.3572746 43.54394531 154.05200195 C44.58183822 149.27769457 44.70005834 145.60262114 42.98144531 140.98950195 C38.82382012 134.53801459 33.37669492 132.77659103 26.16894531 131.17700195 C22.3441819 130.78636955 18.57324159 130.7551825 14.73144531 130.80200195 C13.75240234 130.79040039 12.77335937 130.77879883 11.76464844 130.7668457 C10.82685547 130.77071289 9.8890625 130.77458008 8.92285156 130.77856445 C8.08052979 130.78194824 7.23820801 130.78533203 6.37036133 130.78881836 C3.62208722 131.2734314 2.94701542 132.0648809 1.16894531 134.17700195 Z " fill="#000000" transform="translate(1412.8310546875,808.822998046875)"/>
<path d="M0 0 C18.81 0 37.62 0 57 0 C58.22799104 3.68397312 57.63176041 4.83961457 56.40795898 8.47314453 C55.84421066 10.16849083 55.84421066 10.16849083 55.26907349 11.89808655 C54.63894852 13.74677589 54.63894852 13.74677589 53.99609375 15.6328125 C53.56124255 16.92902113 53.12716571 18.22548977 52.69381714 19.52220154 C51.52749463 23.00456893 50.35001626 26.48306935 49.17032242 29.96092606 C47.94794309 33.57069452 46.73575755 37.1838837 45.5222168 40.79663086 C39.35138339 59.15007763 33.11117369 77.4802102 26.83398438 95.79753113 C23.81847706 104.59706348 20.81168953 113.39937256 17.85018921 122.21725464 C17.21285967 124.112103 16.57100052 126.005426 15.92895508 127.89868164 C15.55407959 129.01879639 15.1792041 130.13891113 14.79296875 131.29296875 C14.4683667 132.2574292 14.14376465 133.22188965 13.80932617 134.21557617 C11.01239961 143.83818475 10.85956618 153.75768332 15 163 C18.51070593 168.50942642 22.69670177 171.87843798 29.11328125 173.55078125 C41.16623765 175.42641046 54.39188626 175.47737869 64.56640625 168.15234375 C82.83802311 152.7818691 89.13385403 131.47757844 95.875 109.5 C96.61031603 107.13097719 97.34658161 104.76224893 98.08374023 102.39379883 C100.01139375 96.19087936 101.92610169 89.98404653 103.8369751 83.77593994 C105.75438476 77.55077339 107.68033337 71.32824956 109.60546875 65.10546875 C111.77972023 58.07689684 113.95270326 51.04796338 116.11474609 44.015625 C116.44912186 42.92953445 116.78349762 41.84344391 117.12800598 40.72444153 C117.73176023 38.76295043 118.33454479 36.80116026 118.93583679 34.83891296 C122.52305599 23.19280316 126.28534272 11.608304 130 0 C148.81 0 167.62 0 187 0 C186.26973452 6.57238932 185.42674532 11.43175402 183.140625 17.39453125 C182.84391403 18.19532104 182.54720306 18.99611084 182.24150085 19.82116699 C181.59378759 21.56760156 180.94174421 23.31243498 180.28585815 25.05581665 C178.46438962 29.90321006 176.6812561 34.76471599 174.89453125 39.625 C174.5081398 40.67408035 174.12174835 41.72316071 173.72364807 42.80403137 C169.13683943 55.29051471 164.71357908 67.83413113 160.31408691 80.38754272 C159.40925821 82.96923043 158.50180797 85.54996886 157.5916748 88.12979126 C151.11059008 106.51620342 144.91405287 124.95219201 139.88812256 143.79606628 C135.03330446 161.51452711 126.13060967 177.26471125 114 191 C113.39800781 191.68964844 112.79601562 192.37929688 112.17578125 193.08984375 C101.47530724 204.51577362 87.16201144 213.04805866 72.5 218.3125 C71.54154175 218.65800903 71.54154175 218.65800903 70.5637207 219.01049805 C58.50702224 223.0821926 46.60623016 224.5502933 33.9375 224.4375 C33.22099274 224.43479095 32.50448547 224.43208191 31.76626587 224.42929077 C11.15154519 224.31158401 -8.02526782 221.47625243 -25 209 C-25.86625 208.4225 -26.7325 207.845 -27.625 207.25 C-38.24884701 197.18530284 -43.83263023 183.08899836 -44.3359375 168.6640625 C-44.3596372 166.3177919 -44.37242438 163.97138888 -44.375 161.625 C-44.39949219 160.48933594 -44.42398438 159.35367188 -44.44921875 158.18359375 C-44.50882766 140.28105025 -38.84943869 123.49346501 -33.40322876 106.62783813 C-31.89430099 101.95489472 -30.40582165 97.27551136 -28.91618347 92.59638977 C-28.13527299 90.14367466 -27.35337336 87.69127428 -26.57051086 85.23918152 C-22.22844499 71.62457335 -18.0171885 57.97003489 -13.8125 44.3125 C-12.77057184 40.92945263 -11.72844265 37.54646788 -10.68566895 34.16368103 C-10.06889034 32.16241064 -9.45275246 30.16094256 -8.83752441 28.15919495 C-5.94139558 18.75642525 -2.96303913 9.38295723 0 0 Z " fill="#000000" transform="translate(700,811)"/>
<path d="M0 0 C45.54 0 91.08 0 138 0 C137.2942143 7.05785699 136.42645383 12.86217417 134.34765625 19.47265625 C134.08746201 20.32178085 133.82726776 21.17090546 133.55918884 22.04576111 C133.01321962 23.81928462 132.46259951 25.59138269 131.9074707 27.36206055 C131.05602397 30.08319674 130.22340704 32.80961603 129.39257812 35.53710938 C128.85787131 37.26596574 128.32210288 38.99449421 127.78515625 40.72265625 C127.41161766 41.94747459 127.41161766 41.94747459 127.03053284 43.19703674 C126.41219457 45.15084687 125.71343933 47.07887518 125 49 C121.90928978 50.54535511 118.63967134 50.17960453 115.24560547 50.20532227 C114.44552063 50.21522186 113.64543579 50.22512146 112.82110596 50.23532104 C110.16983017 50.26697262 107.51853644 50.29170789 104.8671875 50.31640625 C103.03158089 50.33697262 101.19597904 50.35796901 99.36038208 50.37937927 C94.52382261 50.43463268 89.68722017 50.48402752 84.85058594 50.53222656 C79.9172787 50.58241774 74.98403404 50.63811623 70.05078125 50.69335938 C60.36724092 50.80098092 50.68364632 50.90241701 41 51 C39.42960995 55.66181068 37.86312992 60.32490957 36.30029297 64.98925781 C35.76784386 66.57653441 35.23431935 68.16345069 34.69970703 69.75 C33.93240311 72.02771108 33.16894888 74.30668093 32.40625 76.5859375 C32.16563843 77.29744965 31.92502686 78.00896179 31.67712402 78.74203491 C30.42908163 82.29348889 30.42908163 82.29348889 30 86 C31.25454735 85.99333817 31.25454735 85.99333817 32.53443909 85.98654175 C40.43481528 85.94638812 48.33515695 85.91597657 56.23561192 85.89637566 C60.29684889 85.88595973 64.3580012 85.87184074 68.41918945 85.84912109 C72.34196233 85.82731431 76.264654 85.81541491 80.18748283 85.81024551 C81.68052383 85.80656378 83.17356062 85.79937438 84.66656685 85.78853989 C86.76551884 85.77392052 88.86413967 85.77202637 90.96313477 85.77294922 C92.15560318 85.768508 93.34807159 85.76406677 94.57667542 85.75949097 C98.36022328 86.02530784 101.40153253 86.84079226 105 88 C102.8581325 97.09140374 100.2771789 106.01893947 97.55615234 114.94946289 C96.86486477 117.22080095 96.18025686 119.49408514 95.49609375 121.76757812 C95.05768464 123.21366086 94.61889718 124.65962896 94.1796875 126.10546875 C93.97552216 126.78449753 93.77135681 127.46352631 93.56100464 128.16313171 C92.11491266 132.88508734 92.11491266 132.88508734 91 134 C88.62798453 134.12486954 86.28359657 134.18600052 83.90991211 134.20532227 C83.16849472 134.21522186 82.42707733 134.22512146 81.66319275 134.23532104 C79.20127607 134.26702466 76.73934007 134.29172826 74.27734375 134.31640625 C72.57482895 134.33696814 70.87231935 134.3579644 69.16981506 134.37937927 C64.68012691 134.43467899 60.19039208 134.48405328 55.70062256 134.53222656 C51.12263822 134.58238406 46.54472197 134.63810008 41.96679688 134.69335938 C32.9779227 134.80103751 23.9889895 134.90246088 15 135 C14.29124725 136.6365303 14.29124725 136.6365303 13.56817627 138.30612183 C13.30239399 138.91982069 13.03661171 139.53351955 12.76277542 140.16581535 C10.74341446 145.02161008 9.31232139 150.1088324 7.75 155.125 C7.18539063 156.87490234 7.18539063 156.87490234 6.609375 158.66015625 C6.25875 159.78550781 5.908125 160.91085937 5.546875 162.0703125 C5.22557617 163.08883301 4.90427734 164.10735352 4.57324219 165.15673828 C3.73723551 168.35904908 3.73723551 168.35904908 5 173 C30.74 173.33 56.48 173.66 83 174 C84.06750497 179.33752484 83.29733946 182.19266591 81.578125 187.1171875 C81.31747253 187.89256866 81.05682007 188.66794983 80.78826904 189.46682739 C79.9533444 191.94016807 79.1016077 194.40736073 78.25 196.875 C77.69167089 198.52699349 77.13436829 200.17933428 76.578125 201.83203125 C76.03737978 203.42739595 75.49574161 205.02245832 74.953125 206.6171875 C74.57791718 207.72065018 74.57791718 207.72065018 74.19512939 208.84640503 C69.99423389 221.00576611 69.99423389 221.00576611 68 223 C66.21572813 223.09636838 64.42760347 223.12187453 62.64073181 223.12025452 C61.47820389 223.12162918 60.31567596 223.12300385 59.11791992 223.12442017 C57.83111328 223.12082489 56.54430664 223.11722961 55.21850586 223.11352539 C53.85876976 223.11324352 52.4990335 223.11340125 51.13929749 223.1139679 C47.43698222 223.11425587 43.73469908 223.10835912 40.03239131 223.10139394 C36.16731219 223.09516043 32.30223242 223.0945566 28.43714905 223.09336853 C21.11315318 223.09025521 13.78917216 223.0820418 6.46518284 223.07201904 C-1.87083448 223.06085794 -10.20685249 223.05534746 -18.54287541 223.05032361 C-35.69525888 223.03985919 -52.84762787 223.02225973 -70 223 C-69.53377264 217.8419392 -68.92429961 213.02584092 -67.30444336 208.08032227 C-66.78044701 206.45851295 -66.78044701 206.45851295 -66.24586487 204.80393982 C-65.8643779 203.65305374 -65.48289093 202.50216766 -65.08984375 201.31640625 C-64.47822628 199.4348847 -63.86660991 197.5533628 -63.25503826 195.67182636 C-62.60435896 193.67565359 -61.94941839 191.6809269 -61.29315186 189.68658447 C-59.91670609 185.5033525 -58.5522699 181.31626543 -57.18994141 177.12841797 C-55.7977669 172.85042108 -54.40501487 168.57262002 -53.00817871 164.29614258 C-49.23727397 152.75032337 -45.51965765 141.18799726 -41.82907104 129.61624146 C-40.22170149 124.57675254 -38.61089704 119.53836225 -37 114.5 C-36.67837387 113.49389175 -36.35674774 112.48778351 -36.02537537 111.45118713 C-31.61385608 97.65726401 -27.17313657 83.87270888 -22.73629761 70.08691406 C-18.73328491 57.64737817 -14.73996159 45.20495735 -10.78515625 32.75 C-10.4552771 31.71128754 -10.12539795 30.67257507 -9.78552246 29.60238647 C-8.23754345 24.72619443 -6.69202511 19.84923861 -5.14990234 14.97119141 C-4.60907105 13.2646416 -4.06821946 11.55809823 -3.52734375 9.8515625 C-3.28347427 9.0773999 -3.0396048 8.3032373 -2.78834534 7.50561523 C-1.11307523 2.22615045 -1.11307523 2.22615045 0 0 Z " fill="#000000" transform="translate(1742,811)"/>
<path d="M0 0 C2.14550269 0.01611324 4.28912304 0.00001681 6.43457031 -0.01904297 C26.50666752 -0.05008134 49.96620896 4.22376768 65.14550781 18.39111328 C66.83084406 21.76178578 66.82362494 24.77236949 66.14550781 28.39111328 C64.16848233 32.83565342 61.67657868 36.93024569 59.14550781 41.07861328 C58.44908916 42.24115141 57.7538606 43.40440328 57.05981445 44.56835938 C55.70513071 46.83519326 54.3405901 49.0950418 52.97021484 51.35253906 C51.45682831 53.87269009 49.9980735 56.40710454 48.57910156 58.98095703 C48.23041016 59.59817627 47.88171875 60.21539551 47.52246094 60.85131836 C46.65794706 62.38331423 45.80544252 63.92207067 44.95410156 65.46142578 C43.14550781 67.39111328 43.14550781 67.39111328 40.36035156 67.98095703 C36.24387468 67.22568606 33.55143313 65.27406704 30.27050781 62.82861328 C24.96075639 59.08133734 19.67884851 55.96830724 13.70800781 53.39111328 C13.07072754 53.11323975 12.43344727 52.83536621 11.77685547 52.54907227 C1.90445902 48.43193632 -9.47524139 45.89313535 -19.79199219 49.95361328 C-24.72740387 52.48948779 -28.37864897 56.43942685 -30.85449219 61.39111328 C-31.49857765 66.75849217 -30.57170935 70.06987534 -27.58886719 74.41845703 C-23.62337989 78.92875227 -18.38035296 81.8241441 -13.32324219 84.96142578 C5.09109651 96.44265503 28.59051633 111.43907833 34.52441406 133.53955078 C37.91503992 154.56569604 33.34908337 173.90431519 22.00878906 191.75439453 C7.00090083 212.52832959 -12.46540396 223.5824102 -37.65527344 227.65283203 C-57.18485482 230.28484242 -76.49107868 229.88041726 -94.85449219 222.39111328 C-95.72251465 222.05370117 -96.59053711 221.71628906 -97.48486328 221.36865234 C-124.36827598 210.87732949 -124.36827598 210.87732949 -132.85449219 202.39111328 C-133.53208401 196.05126897 -132.36228521 192.5768915 -128.54199219 187.45361328 C-127.62499659 186.15528455 -126.7096987 184.85575546 -125.79589844 183.55517578 C-125.07490967 182.54438965 -125.07490967 182.54438965 -124.33935547 181.51318359 C-121.77931127 177.85453444 -119.38684099 174.08873707 -116.97949219 170.32861328 C-115.67064097 168.29446467 -114.36079094 166.2615376 -113.03515625 164.23828125 C-112.26507788 163.03348122 -111.52544408 161.80850824 -110.82226562 160.56347656 C-109.84667969 158.89501953 -109.84667969 158.89501953 -107.85449219 156.39111328 C-105.35058594 155.82861328 -105.35058594 155.82861328 -102.85449219 156.39111328 C-100.88964844 157.64111328 -100.88964844 157.64111328 -98.91699219 159.39111328 C-82.69519902 172.6029514 -61.85854735 180.92746005 -40.85449219 179.39111328 C-34.08243742 177.80555462 -29.59719564 174.17529135 -25.85449219 168.39111328 C-23.53539217 164.35728477 -21.75512582 161.14966695 -22.02246094 156.41845703 C-24.71185177 146.63311481 -34.84367757 141.17909689 -43.06152344 136.44921875 C-58.29731143 127.45794626 -77.5785956 115.72907001 -83.85449219 98.39111328 C-84.15097656 97.61380859 -84.44746094 96.83650391 -84.75292969 96.03564453 C-89.79504395 80.00727213 -88.26034837 60.70762769 -81.35449219 45.57861328 C-70.6781185 25.34408959 -55.45004214 10.96667228 -33.39892578 4.07080078 C-22.28247581 1.10129428 -11.48209148 -0.10200491 0 0 Z " fill="#000000" transform="translate(966.8544921875,806.60888671875)"/>
<path d="M0 0 C2.6190456 0.42801523 3.33332742 1.30151827 5.0078125 3.328125 C5.59490204 5.19934559 5.59490204 5.19934559 5.90026855 7.35322571 C6.02356537 8.1786342 6.14686218 9.0040427 6.27389526 9.85446358 C6.39684967 10.76527624 6.51980408 11.67608891 6.64648438 12.61450195 C6.78825104 13.58864988 6.9300177 14.56279781 7.07608032 15.56646538 C7.55483779 18.87735088 8.01551404 22.19051164 8.4765625 25.50390625 C8.81905756 27.89838111 9.16272052 30.29268915 9.50744629 32.68684387 C10.269259 37.99278134 11.02343829 43.29973055 11.77246094 48.60748291 C12.95380086 56.97339049 14.15882224 65.33580708 15.36766815 73.69777846 C17.68591874 89.73478993 19.98443315 105.77454979 22.26934814 121.81634331 C22.51646736 123.55114792 22.76359874 125.2859508 23.01074219 127.02075195 C23.13340076 127.88174881 23.25605934 128.74274567 23.38243484 129.62983334 C24.39423818 136.72793424 25.4131058 143.82501024 26.43309927 150.92193812 C27.43225876 157.87694299 28.42553475 164.83277285 29.41445017 171.78924161 C29.99852294 175.89679915 30.58504909 180.00396782 31.17802429 184.11025047 C31.72985072 187.93241798 32.27433456 191.75556168 32.81332779 195.57955933 C33.01060803 196.97023007 33.2104619 198.3605388 33.41321945 199.75042152 C34.5525501 207.57208214 35.66124994 215.40886232 35.0078125 223.328125 C34.0078125 224.328125 34.0078125 224.328125 31.83750916 224.44837952 C30.88042557 224.44615891 29.92334198 224.44393829 28.93725586 224.44165039 C27.85621078 224.44157486 26.77516571 224.44149933 25.66136169 224.44142151 C23.8973275 224.43367958 23.8973275 224.43367958 22.09765625 224.42578125 C20.90048477 224.4243663 19.70331329 224.42295135 18.46986389 224.42149353 C14.62832184 224.41587479 10.78683707 224.40331911 6.9453125 224.390625 C4.34830813 224.38561241 1.75130285 224.38104909 -0.84570312 224.37695312 C-7.22788429 224.36589927 -13.6100318 224.34914292 -19.9921875 224.328125 C-20.2809919 220.22072733 -20.56564805 216.11306394 -20.84667969 212.00512695 C-20.94258133 210.61149589 -21.03956091 209.21793852 -21.13769531 207.82446289 C-21.27962265 205.80634303 -21.41750076 203.78797828 -21.5546875 201.76953125 C-21.63847656 200.55982666 -21.72226563 199.35012207 -21.80859375 198.10375977 C-22.0159374 193.83970461 -22.03063927 189.59592844 -21.9921875 185.328125 C-29.9551709 185.43595284 -37.91806452 185.54865024 -45.88089085 185.66746426 C-49.57884983 185.72249093 -53.27681695 185.77587698 -56.97485352 185.82543945 C-60.54755503 185.87338375 -64.1201679 185.92573453 -67.69276237 185.98106575 C-69.05179558 186.00135397 -70.41085296 186.02008813 -71.76992989 186.03719902 C-73.68204568 186.06154542 -75.59407976 186.09206689 -77.50610352 186.12280273 C-78.59198257 186.13834702 -79.67786163 186.1538913 -80.79664612 186.16990662 C-87.80670476 186.28558492 -87.80670476 186.28558492 -93.51953125 189.75 C-94.34298871 190.84455874 -95.14512884 191.95535667 -95.9296875 193.078125 C-96.86309393 194.3386804 -97.79670134 195.59908698 -98.73046875 196.859375 C-99.23916504 197.560625 -99.74786133 198.261875 -100.27197266 198.984375 C-102.2196137 201.63798755 -104.21655236 204.24969239 -106.22265625 206.859375 C-109.08140531 210.57888747 -111.93963136 214.29862413 -114.78125 218.03125 C-115.67384521 219.20155762 -115.67384521 219.20155762 -116.58447266 220.39550781 C-118.0333965 222.27293913 -118.0333965 222.27293913 -118.9921875 224.328125 C-137.4721875 224.328125 -155.9521875 224.328125 -174.9921875 224.328125 C-174.9921875 217.57982568 -174.9921875 217.57982568 -172.421875 214.4375 C-171.86209961 213.73713623 -171.30232422 213.03677246 -170.72558594 212.31518555 C-170.11231445 211.57695557 -169.49904297 210.83872559 -168.8671875 210.078125 C-167.57774081 208.47556946 -166.28868955 206.87269569 -165 205.26953125 C-164.33516602 204.45242676 -163.67033203 203.63532227 -162.98535156 202.79345703 C-159.84711981 198.91179801 -156.79690264 194.96309437 -153.7421875 191.015625 C-152.57573259 189.51546032 -151.40907064 188.0154566 -150.2421875 186.515625 C-145.8044706 180.80258292 -141.39579302 175.06749086 -136.9921875 169.328125 C-130.74985409 161.1922838 -124.47369267 153.08404316 -118.17382812 144.99267578 C-113.08757231 138.45736399 -108.03412817 131.89767353 -102.9921875 125.328125 C-100.90639645 122.61510914 -98.81932272 119.90308018 -96.73242188 117.19091797 C-94.69777382 114.54635014 -92.66430494 111.90090053 -90.6328125 109.25390625 C-85.1741357 102.14513924 -79.68003269 95.06468878 -74.17382812 87.99267578 C-69.08757853 81.45737198 -64.03326444 74.89832861 -58.9921875 68.328125 C-52.74985409 60.1922838 -46.47369267 52.08404316 -40.17382812 43.99267578 C-34.22736493 36.35208662 -28.32405894 28.67902639 -22.4375 20.9921875 C-6.53178688 0.24102535 -6.53178688 0.24102535 0 0 Z M-31.9921875 99.328125 C-38.47517561 108.23227821 -44.73405471 117.28482495 -50.9296875 126.390625 C-51.30576141 126.94241425 -51.68183533 127.49420349 -52.06930542 128.06271362 C-53.15854479 129.66177056 -54.24532412 131.26250234 -55.33203125 132.86328125 C-55.96488037 133.795354 -56.59772949 134.72742676 -57.24975586 135.68774414 C-58.90476399 138.19564843 -60.4675029 140.73935286 -61.9921875 143.328125 C-60.2639761 145.0563364 -58.04968376 144.45630212 -55.74635315 144.46707153 C-55.01408005 144.4650473 -54.28180695 144.46302307 -53.52734375 144.4609375 C-52.77883652 144.46189423 -52.03032928 144.46285095 -51.25914001 144.46383667 C-49.67284054 144.46451846 -48.08653829 144.46266422 -46.50024414 144.45849609 C-44.06845841 144.45315524 -41.63685801 144.4584372 -39.20507812 144.46484375 C-37.66666626 144.46418282 -36.12825451 144.46290135 -34.58984375 144.4609375 C-33.49447044 144.46397385 -33.49447044 144.46397385 -32.37696838 144.46707153 C-28.5581423 144.51491383 -28.5581423 144.51491383 -24.9921875 143.328125 C-25.57943022 133.48776442 -26.58713406 123.78282606 -27.9296875 114.015625 C-28.10108106 112.69077714 -28.27230565 111.36590741 -28.44335938 110.04101562 C-28.61287109 108.79900391 -28.78238281 107.55699219 -28.95703125 106.27734375 C-29.18314087 104.59644653 -29.18314087 104.59644653 -29.41381836 102.8815918 C-29.60468018 102.03894775 -29.79554199 101.19630371 -29.9921875 100.328125 C-30.6521875 99.998125 -31.3121875 99.668125 -31.9921875 99.328125 Z " fill="#000000" transform="translate(1287.9921875,806.671875)"/>
<path d="M0 0 C2.6190456 0.42801523 3.33332742 1.30151827 5.0078125 3.328125 C5.59490204 5.19934559 5.59490204 5.19934559 5.90026855 7.35322571 C6.02356537 8.1786342 6.14686218 9.0040427 6.27389526 9.85446358 C6.39684967 10.76527624 6.51980408 11.67608891 6.64648438 12.61450195 C6.78825104 13.58864988 6.9300177 14.56279781 7.07608032 15.56646538 C7.55483779 18.87735088 8.01551404 22.19051164 8.4765625 25.50390625 C8.81905756 27.89838111 9.16272052 30.29268915 9.50744629 32.68684387 C10.269259 37.99278134 11.02343829 43.29973055 11.77246094 48.60748291 C12.95380086 56.97339049 14.15882224 65.33580708 15.36766815 73.69777846 C17.68591874 89.73478993 19.98443315 105.77454979 22.26934814 121.81634331 C22.51646736 123.55114792 22.76359874 125.2859508 23.01074219 127.02075195 C23.13340076 127.88174881 23.25605934 128.74274567 23.38243484 129.62983334 C24.39423818 136.72793424 25.4131058 143.82501024 26.43309927 150.92193812 C27.43225876 157.87694299 28.42553475 164.83277285 29.41445017 171.78924161 C29.99852294 175.89679915 30.58504909 180.00396782 31.17802429 184.11025047 C31.72985072 187.93241798 32.27433456 191.75556168 32.81332779 195.57955933 C33.01060803 196.97023007 33.2104619 198.3605388 33.41321945 199.75042152 C34.5525501 207.57208214 35.66124994 215.40886232 35.0078125 223.328125 C34.0078125 224.328125 34.0078125 224.328125 31.83750916 224.44837952 C30.88042557 224.44615891 29.92334198 224.44393829 28.93725586 224.44165039 C27.85621078 224.44157486 26.77516571 224.44149933 25.66136169 224.44142151 C23.8973275 224.43367958 23.8973275 224.43367958 22.09765625 224.42578125 C20.90048477 224.4243663 19.70331329 224.42295135 18.46986389 224.42149353 C14.62832184 224.41587479 10.78683707 224.40331911 6.9453125 224.390625 C4.34830813 224.38561241 1.75130285 224.38104909 -0.84570312 224.37695312 C-7.22788429 224.36589927 -13.6100318 224.34914292 -19.9921875 224.328125 C-20.2809919 220.22072733 -20.56564805 216.11306394 -20.84667969 212.00512695 C-20.94258133 210.61149589 -21.03956091 209.21793852 -21.13769531 207.82446289 C-21.27962265 205.80634303 -21.41750076 203.78797828 -21.5546875 201.76953125 C-21.63847656 200.55982666 -21.72226563 199.35012207 -21.80859375 198.10375977 C-22.0159374 193.83970461 -22.03063927 189.59592844 -21.9921875 185.328125 C-29.9551709 185.43595284 -37.91806452 185.54865024 -45.88089085 185.66746426 C-49.57884983 185.72249093 -53.27681695 185.77587698 -56.97485352 185.82543945 C-60.54755503 185.87338375 -64.1201679 185.92573453 -67.69276237 185.98106575 C-69.05179558 186.00135397 -70.41085296 186.02008813 -71.76992989 186.03719902 C-73.68204568 186.06154542 -75.59407976 186.09206689 -77.50610352 186.12280273 C-78.59198257 186.13834702 -79.67786163 186.1538913 -80.79664612 186.16990662 C-87.80670476 186.28558492 -87.80670476 186.28558492 -93.51953125 189.75 C-94.34298871 190.84455874 -95.14512884 191.95535667 -95.9296875 193.078125 C-96.86309393 194.3386804 -97.79670134 195.59908698 -98.73046875 196.859375 C-99.23916504 197.560625 -99.74786133 198.261875 -100.27197266 198.984375 C-102.2196137 201.63798755 -104.21655236 204.24969239 -106.22265625 206.859375 C-109.08140531 210.57888747 -111.93963136 214.29862413 -114.78125 218.03125 C-115.67384521 219.20155762 -115.67384521 219.20155762 -116.58447266 220.39550781 C-118.0333965 222.27293913 -118.0333965 222.27293913 -118.9921875 224.328125 C-137.4721875 224.328125 -155.9521875 224.328125 -174.9921875 224.328125 C-174.9921875 217.57982568 -174.9921875 217.57982568 -172.421875 214.4375 C-171.86209961 213.73713623 -171.30232422 213.03677246 -170.72558594 212.31518555 C-170.11231445 211.57695557 -169.49904297 210.83872559 -168.8671875 210.078125 C-167.57774081 208.47556946 -166.28868955 206.87269569 -165 205.26953125 C-164.33516602 204.45242676 -163.67033203 203.63532227 -162.98535156 202.79345703 C-159.84711981 198.91179801 -156.79690264 194.96309437 -153.7421875 191.015625 C-152.57573259 189.51546032 -151.40907064 188.0154566 -150.2421875 186.515625 C-145.8044706 180.80258292 -141.39579302 175.06749086 -136.9921875 169.328125 C-130.74985409 161.1922838 -124.47369267 153.08404316 -118.17382812 144.99267578 C-113.08757231 138.45736399 -108.03412817 131.89767353 -102.9921875 125.328125 C-100.90639645 122.61510914 -98.81932272 119.90308018 -96.73242188 117.19091797 C-94.69777382 114.54635014 -92.66430494 111.90090053 -90.6328125 109.25390625 C-85.1741357 102.14513924 -79.68003269 95.06468878 -74.17382812 87.99267578 C-69.08757853 81.45737198 -64.03326444 74.89832861 -58.9921875 68.328125 C-52.74985409 60.1922838 -46.47369267 52.08404316 -40.17382812 43.99267578 C-34.22736493 36.35208662 -28.32405894 28.67902639 -22.4375 20.9921875 C-6.53178688 0.24102535 -6.53178688 0.24102535 0 0 Z M-31.9921875 99.328125 C-38.47517561 108.23227821 -44.73405471 117.28482495 -50.9296875 126.390625 C-51.30576141 126.94241425 -51.68183533 127.49420349 -52.06930542 128.06271362 C-53.15854479 129.66177056 -54.24532412 131.26250234 -55.33203125 132.86328125 C-55.96488037 133.795354 -56.59772949 134.72742676 -57.24975586 135.68774414 C-58.90476399 138.19564843 -60.4675029 140.73935286 -61.9921875 143.328125 C-60.2639761 145.0563364 -58.04968376 144.45630212 -55.74635315 144.46707153 C-55.01408005 144.4650473 -54.28180695 144.46302307 -53.52734375 144.4609375 C-52.77883652 144.46189423 -52.03032928 144.46285095 -51.25914001 144.46383667 C-49.67284054 144.46451846 -48.08653829 144.46266422 -46.50024414 144.45849609 C-44.06845841 144.45315524 -41.63685801 144.4584372 -39.20507812 144.46484375 C-37.66666626 144.46418282 -36.12825451 144.46290135 -34.58984375 144.4609375 C-33.49447044 144.46397385 -33.49447044 144.46397385 -32.37696838 144.46707153 C-28.5581423 144.51491383 -28.5581423 144.51491383 -24.9921875 143.328125 C-25.57943022 133.48776442 -26.58713406 123.78282606 -27.9296875 114.015625 C-28.10108106 112.69077714 -28.27230565 111.36590741 -28.44335938 110.04101562 C-28.61287109 108.79900391 -28.78238281 107.55699219 -28.95703125 106.27734375 C-29.18314087 104.59644653 -29.18314087 104.59644653 -29.41381836 102.8815918 C-29.60468018 102.03894775 -29.79554199 101.19630371 -29.9921875 100.328125 C-30.6521875 99.998125 -31.3121875 99.668125 -31.9921875 99.328125 Z " fill="#000000" transform="translate(250.9921875,806.671875)"/>
<path d="M0 0 C60.06 0 120.12 0 182 0 C180.87496656 10.125301 180.87496656 10.125301 179.6171875 13.57006836 C179.3402002 14.34374252 179.06321289 15.11741669 178.77783203 15.91453552 C178.47989746 16.71488724 178.18196289 17.51523895 177.875 18.33984375 C177.56804199 19.18801163 177.26108398 20.0361795 176.94482422 20.91004944 C175.9725023 23.58935676 174.98637313 26.2633382 174 28.9375 C173.33765417 30.75814092 172.67618755 32.57910194 172.015625 34.40039062 C167.24659911 47.50680179 167.24659911 47.50680179 166 50 C145.21 50 124.42 50 103 50 C102.01 53.96 101.02 57.92 100 62 C99.36742585 64.1715129 98.7129231 66.33697697 98.02075195 68.49023438 C97.65710037 69.62826004 97.29344879 70.76628571 96.91877747 71.938797 C96.33443184 73.74799873 96.33443184 73.74799873 95.73828125 75.59375 C95.31450417 76.91591199 94.89111007 78.23819679 94.46806335 79.56059265 C93.56109164 82.39354918 92.65193004 85.22578908 91.7409668 88.0574646 C89.53061593 94.92888053 87.33167592 101.8039515 85.13219833 108.67885399 C84.6172341 110.28832574 84.10212917 111.89775248 83.58688736 113.50713539 C79.50104658 126.27021914 75.44848292 139.04355985 71.41796875 151.82421875 C71.14802912 152.68007191 70.87808949 153.53592506 70.59996986 154.41771317 C67.96275962 162.78006625 65.32836255 171.14330255 62.69665241 179.50738811 C61.71702385 182.6198093 60.73623566 185.73186434 59.75522804 188.84385109 C59.09469341 190.94076834 58.43581484 193.03820051 57.77702332 195.13566589 C54.62591372 205.13119601 51.31553333 215.0534 48 225 C29.19 225 10.38 225 -9 225 C-7.87505466 214.87549195 -7.87505466 214.87549195 -6.33618164 210.09960938 C-5.9932457 209.0207547 -5.65030975 207.94190002 -5.29698181 206.83035278 C-4.73425316 205.10448441 -4.73425316 205.10448441 -4.16015625 203.34375 C-3.55632861 201.45571378 -2.95250195 199.56767725 -2.34871387 197.67962837 C-1.70445831 195.67068292 -1.05602629 193.66313078 -0.40631104 191.65594482 C0.95796163 187.44085982 2.31031651 183.22201113 3.66064453 179.00244141 C5.0567904 174.64147857 6.45362234 170.28074319 7.85449219 165.92129517 C12.40707859 151.75357959 16.89832304 137.56689326 21.375 123.375 C22.1130226 121.03783721 22.8510596 118.70067898 23.58911133 116.36352539 C30.45902707 94.59615659 37.23672889 72.80075687 44 51 C14.3 50.505 14.3 50.505 -16 50 C-14.87496656 39.874699 -14.87496656 39.874699 -13.6171875 36.42993164 C-13.3402002 35.65625748 -13.06321289 34.88258331 -12.77783203 34.08546448 C-12.47989746 33.28511276 -12.18196289 32.48476105 -11.875 31.66015625 C-11.56804199 30.81198837 -11.26108398 29.9638205 -10.94482422 29.08995056 C-9.9725023 26.41064324 -8.98637313 23.7366618 -8 21.0625 C-7.33765417 19.24185908 -6.67618755 17.42089806 -6.015625 15.59960938 C-1.24659911 2.49319821 -1.24659911 2.49319821 0 0 Z " fill="#000000" transform="translate(1053,809)"/>
<path d="M0 0 C17.82 0 35.64 0 54 0 C52.87510006 10.12409949 52.87510006 10.12409949 51.51977539 14.2578125 C51.21686584 15.19656723 50.9139563 16.13532196 50.60186768 17.1025238 C50.27047791 18.09994095 49.93908813 19.09735809 49.59765625 20.125 C49.24862244 21.19980118 48.89958862 22.27460236 48.53997803 23.38197327 C47.78426935 25.70615562 47.02468372 28.02908025 46.2616272 30.3508606 C44.40757168 35.99305356 42.57697087 41.64285579 40.74388695 47.29188728 C40.10496967 49.25966153 39.46497445 51.2270826 38.82478333 53.19444275 C34.40330015 66.79060156 30.10266184 80.42439736 25.8125 94.0625 C24.33281808 98.76196688 22.85227251 103.46116094 21.37109375 108.16015625 C21.01021164 109.3051358 20.64932953 110.45011536 20.2775116 111.62979126 C17.71345535 119.75726154 15.13006181 127.87842328 12.53515625 135.99609375 C12.18050797 137.10557877 11.82585968 138.21506378 11.46046448 139.35816956 C9.78192544 144.60686488 8.10090026 149.85475314 6.41723633 155.10180664 C5.82762772 156.94286821 5.23802758 158.7839325 4.6484375 160.625 C4.37753799 161.46675278 4.10663849 162.30850555 3.82752991 163.17576599 C2.55926887 166.5254341 2.55926887 166.5254341 2 170 C29.06 170.33 56.12 170.66 84 171 C82.11366345 187.97702896 74.64288209 203.87747974 69 220 C23.46 220 -22.08 220 -69 220 C-67.87505239 209.87547148 -67.87505239 209.87547148 -66.39624023 205.35571289 C-65.90226746 203.8239743 -65.90226746 203.8239743 -65.39831543 202.2612915 C-65.03870728 201.17604187 -64.67909912 200.09079224 -64.30859375 198.97265625 C-63.74368225 197.23227081 -63.74368225 197.23227081 -63.1673584 195.45672607 C-62.35561347 192.95952382 -61.54089083 190.46355324 -60.72067261 187.96914673 C-59.4158584 184.00071512 -58.12305519 180.0284351 -56.83227539 176.05541992 C-55.50669018 171.97697163 -54.18045177 167.89874428 -52.8500824 163.82185364 C-49.15608236 152.5009659 -45.51524298 141.16353117 -41.89645386 129.81838989 C-40.27844003 124.74664284 -38.65690295 119.6760232 -37.03515625 114.60546875 C-36.54801903 113.0822123 -36.54801903 113.0822123 -36.05104065 111.52818298 C-31.62980929 97.70926924 -27.18157674 83.89901895 -22.73657227 70.08773804 C-18.73346747 57.6479276 -14.74004922 45.20523334 -10.78515625 32.75 C-10.4552771 31.71128754 -10.12539795 30.67257507 -9.78552246 29.60238647 C-8.23754345 24.72619443 -6.69202511 19.84923861 -5.14990234 14.97119141 C-4.60907105 13.2646416 -4.06821946 11.55809823 -3.52734375 9.8515625 C-3.28347427 9.0773999 -3.0396048 8.3032373 -2.78834534 7.50561523 C-1.11307523 2.22615045 -1.11307523 2.22615045 0 0 Z " fill="#000000" transform="translate(1586,811)"/>
<path d="M0 0 C18.81 0 37.62 0 57 0 C55.87503347 10.12469881 55.87503347 10.12469881 54.38378906 14.83349609 C54.05045563 15.90035645 53.71712219 16.9672168 53.37368774 18.06640625 C53.00802704 19.20722656 52.64236633 20.34804688 52.265625 21.5234375 C51.68704239 23.36349365 51.68704239 23.36349365 51.09677124 25.24072266 C50.04357242 28.59000294 48.98034125 31.9360203 47.91529083 35.28154755 C46.79345136 38.8116091 45.68099888 42.34462514 44.56787109 45.87744141 C43.16752423 50.31970336 41.7661292 54.76162565 40.36056519 59.20223999 C36.95509546 69.96125 33.57562039 80.72816948 30.2109375 91.5 C29.73611136 93.01942791 29.26125799 94.5388473 28.78637695 96.05825806 C26.36902833 103.79278826 26.36902833 103.79278826 23.95271301 111.5276413 C9.36940572 158.22276818 9.36940572 158.22276818 4.125 168.875 C3.69719238 169.75647705 3.26938477 170.6379541 2.82861328 171.54614258 C-0.58960447 178.45312887 -4.36640186 184.82500207 -9 191 C-9.64582031 191.87785156 -10.29164063 192.75570312 -10.95703125 193.66015625 C-24.90963 211.90586231 -44.53047827 220.92852727 -67 224 C-72.07209601 224.40293115 -77.10103155 224.47897364 -82.1875 224.4375 C-82.85842682 224.43346161 -83.52935364 224.42942322 -84.22061157 224.42526245 C-106.98356429 224.23423194 -125.40614428 218.51040924 -145 207 C-145.88317143 199.2987451 -143.30185888 195.5429341 -138.75 189.5 C-137.80894409 188.20582153 -137.80894409 188.20582153 -136.84887695 186.88549805 C-134.91861419 184.24205169 -132.96223342 181.61977195 -131 179 C-129.81059276 177.39237464 -128.62176231 175.78432232 -127.43359375 174.17578125 C-119.54110485 163.54110485 -119.54110485 163.54110485 -118 162 C-112.72553919 161.39832077 -109.51112071 163.07023953 -105.1875 165.8125 C-95.26197037 171.76105953 -85.06635357 175.5783031 -73.3125 173.3125 C-63.42801514 170.61354492 -54.84269349 165.00490109 -49.24310303 156.25453186 C-43.59834031 145.21196344 -40.20630295 133.60981936 -36.703125 121.74609375 C-36.02313898 119.47786355 -35.34202347 117.20997168 -34.65985107 114.94239807 C-32.87072633 108.98421303 -31.09698618 103.02155741 -29.32653809 97.05780029 C-27.56039169 91.11840959 -25.77954175 85.18343487 -24 79.24804688 C-18.82709096 61.98013803 -13.68757409 44.70235489 -8.56835938 27.41845703 C-8.04776932 25.66219007 -7.52716045 23.90592868 -7.00653076 22.14967346 C-6.05919558 18.95387079 -5.11452478 15.75729893 -4.17169189 12.56016541 C-3.75874074 11.16516982 -3.34572059 9.77019465 -2.93261719 8.37524414 C-2.58044128 7.18210098 -2.22826538 5.98895782 -1.86541748 4.75965881 C-1 2 -1 2 0 0 Z " fill="#000000" transform="translate(627,811)"/>
<path d="M0 0 C4.08920079 -0.10001808 8.17791311 -0.17200015 12.26806641 -0.21972656 C13.65491156 -0.23965342 15.04167482 -0.2668056 16.42822266 -0.30175781 C34.64311649 -0.74891044 34.64311649 -0.74891044 41.67358398 5.48364258 C46.18913322 10.61671639 46.36029413 15.31923909 46.265625 21.8671875 C45.54867439 30.32298734 41.53856225 35.01440357 35.21875 40.37109375 C33.19604477 41.85607277 31.25049315 42.91401308 29 44 C29.41886475 44.82725586 29.83772949 45.65451172 30.26928711 46.50683594 C31.8249348 49.58399824 33.37693436 52.66294431 34.92651367 55.74316406 C35.59726508 57.07462424 36.26945235 58.4053621 36.94311523 59.73535156 C37.91250097 61.64979896 38.87665285 63.56680492 39.83984375 65.484375 C40.42113037 66.63647461 41.00241699 67.78857422 41.60131836 68.97558594 C43 72 43 72 44 76 C38.72 76 33.44 76 28 76 C27.0821875 73.91816406 26.164375 71.83632812 25.21875 69.69140625 C24.30592645 67.67902406 23.38254601 65.6718172 22.45800781 63.66479492 C21.82245392 62.27010722 21.19795448 60.87032577 20.58496094 59.46557617 C19.7000392 57.44300019 18.77654805 55.44226936 17.84375 53.44140625 C17.57880737 52.81222794 17.31386475 52.18304962 17.04089355 51.5348053 C16.13922839 49.49980475 16.13922839 49.49980475 14 47 C11.21905776 46.14919048 8.9495653 46.07642056 6 46 C5.95174072 46.5986084 5.90348145 47.1972168 5.85375977 47.81396484 C5.28524697 54.1904439 4.25019835 60.36301142 2.9375 66.625 C2.6580957 67.98818359 2.6580957 67.98818359 2.37304688 69.37890625 C1.91983534 71.5868599 1.46056576 73.79356867 1 76 C-3.95 76 -8.9 76 -14 76 C-12.68886081 66.47622652 -11.17419389 57.0331054 -9.43359375 47.578125 C-9.19207583 46.25773808 -8.95071036 44.93732326 -8.70948792 43.61688232 C-8.20956472 40.88390462 -7.7076794 38.15129689 -7.2043457 35.41894531 C-6.55925406 31.91601947 -5.91949733 28.41214254 -5.28117275 24.90797806 C-4.66823269 21.54748984 -4.05070446 18.18784986 -3.43359375 14.828125 C-3.20441757 13.56993958 -2.97524139 12.31175415 -2.73912048 11.01544189 C-2.52542313 9.85953552 -2.31172577 8.70362915 -2.09155273 7.51269531 C-1.90439194 6.49346985 -1.71723114 5.47424438 -1.5243988 4.4241333 C-1 2 -1 2 0 0 Z M12 13 C11.49395076 15.39469729 10.99500483 17.79051717 10.5 20.1875 C10.35691406 20.86103516 10.21382812 21.53457031 10.06640625 22.22851562 C9.31930158 25.87509793 8.82647718 29.27648957 9 33 C16.90925429 32.7588642 23.29528565 32.42764155 30 28 C31.86786316 25.06649696 32.00273107 24.05189042 31.8125 20.4375 C30.88587292 16.503305 30.88587292 16.503305 28 14 C24.57767028 12.85922343 21.91326783 12.90184883 18.3125 12.9375 C17.13300781 12.94652344 15.95351562 12.95554687 14.73828125 12.96484375 C13.83464844 12.97644531 12.93101563 12.98804688 12 13 Z " fill="#000000" transform="translate(1561,1059)"/>
<path d="M0 0 C4.08920079 -0.10001808 8.17791311 -0.17200015 12.26806641 -0.21972656 C13.65491156 -0.23965342 15.04167482 -0.2668056 16.42822266 -0.30175781 C34.64311649 -0.74891044 34.64311649 -0.74891044 41.67358398 5.48364258 C46.18913322 10.61671639 46.36029413 15.31923909 46.265625 21.8671875 C45.54867439 30.32298734 41.53856225 35.01440357 35.21875 40.37109375 C33.19604477 41.85607277 31.25049315 42.91401308 29 44 C29.41886475 44.82725586 29.83772949 45.65451172 30.26928711 46.50683594 C31.8249348 49.58399824 33.37693436 52.66294431 34.92651367 55.74316406 C35.59726508 57.07462424 36.26945235 58.4053621 36.94311523 59.73535156 C37.91250097 61.64979896 38.87665285 63.56680492 39.83984375 65.484375 C40.42113037 66.63647461 41.00241699 67.78857422 41.60131836 68.97558594 C43 72 43 72 44 76 C38.72 76 33.44 76 28 76 C27.0821875 73.91816406 26.164375 71.83632812 25.21875 69.69140625 C24.30592645 67.67902406 23.38254601 65.6718172 22.45800781 63.66479492 C21.82245392 62.27010722 21.19795448 60.87032577 20.58496094 59.46557617 C19.7000392 57.44300019 18.77654805 55.44226936 17.84375 53.44140625 C17.57880737 52.81222794 17.31386475 52.18304962 17.04089355 51.5348053 C16.13922839 49.49980475 16.13922839 49.49980475 14 47 C11.21905776 46.14919048 8.9495653 46.07642056 6 46 C5.95174072 46.5986084 5.90348145 47.1972168 5.85375977 47.81396484 C5.28524697 54.1904439 4.25019835 60.36301142 2.9375 66.625 C2.6580957 67.98818359 2.6580957 67.98818359 2.37304688 69.37890625 C1.91983534 71.5868599 1.46056576 73.79356867 1 76 C-3.95 76 -8.9 76 -14 76 C-12.68886081 66.47622652 -11.17419389 57.0331054 -9.43359375 47.578125 C-9.19207583 46.25773808 -8.95071036 44.93732326 -8.70948792 43.61688232 C-8.20956472 40.88390462 -7.7076794 38.15129689 -7.2043457 35.41894531 C-6.55925406 31.91601947 -5.91949733 28.41214254 -5.28117275 24.90797806 C-4.66823269 21.54748984 -4.05070446 18.18784986 -3.43359375 14.828125 C-3.20441757 13.56993958 -2.97524139 12.31175415 -2.73912048 11.01544189 C-2.52542313 9.85953552 -2.31172577 8.70362915 -2.09155273 7.51269531 C-1.90439194 6.49346985 -1.71723114 5.47424438 -1.5243988 4.4241333 C-1 2 -1 2 0 0 Z M12 13 C11.49395076 15.39469729 10.99500483 17.79051717 10.5 20.1875 C10.35691406 20.86103516 10.21382812 21.53457031 10.06640625 22.22851562 C9.31930158 25.87509793 8.82647718 29.27648957 9 33 C16.90925429 32.7588642 23.29528565 32.42764155 30 28 C31.86786316 25.06649696 32.00273107 24.05189042 31.8125 20.4375 C30.88587292 16.503305 30.88587292 16.503305 28 14 C24.57767028 12.85922343 21.91326783 12.90184883 18.3125 12.9375 C17.13300781 12.94652344 15.95351562 12.95554687 14.73828125 12.96484375 C13.83464844 12.97644531 12.93101563 12.98804688 12 13 Z " fill="#000000" transform="translate(1356,1059)"/>
<path d="M0 0 C2.05078125 0.03255208 4.1015625 0.06510417 6.15234375 0.09765625 C6.65664917 0.9935144 6.65664917 0.9935144 7.17114258 1.9074707 C14.74541446 15.35498549 22.38628144 28.75995004 30.15234375 42.09765625 C31.63178022 37.19232387 32.74949589 32.31597106 33.625 27.265625 C33.7529747 26.5478035 33.8809494 25.82998199 34.01280212 25.09040833 C34.41692505 22.82258518 34.81639337 20.55398241 35.21484375 18.28515625 C35.61706728 15.9985167 36.02039044 13.71210354 36.42759705 11.42634583 C36.67987971 10.01011244 36.92930256 8.59336597 37.17555237 7.17607117 C38.0397242 2.32289536 38.0397242 2.32289536 39.15234375 0.09765625 C43.77234375 0.09765625 48.39234375 0.09765625 53.15234375 0.09765625 C51.78315421 9.23766328 50.25240425 18.33172388 48.5859375 27.421875 C48.34449795 28.74370551 48.10313079 30.06554924 47.86183167 31.3874054 C47.36138302 34.12626082 46.85951225 36.86485098 46.35668945 39.60327148 C45.71222813 43.11418736 45.0723143 46.62591588 44.4335165 50.13786602 C43.82044471 53.50388087 43.20294218 56.86907885 42.5859375 60.234375 C42.35676132 61.49569748 42.12758514 62.75701996 41.89146423 64.05656433 C41.5709182 65.79526543 41.5709182 65.79526543 41.24389648 67.5690918 C40.96315529 69.1024543 40.96315529 69.1024543 40.67674255 70.66679382 C40.15234375 73.09765625 40.15234375 73.09765625 39.15234375 75.09765625 C36.84234375 75.09765625 34.53234375 75.09765625 32.15234375 75.09765625 C31.78061035 74.42935791 31.40887695 73.76105957 31.02587891 73.07250977 C24.12733327 60.68170137 17.19614187 48.32146599 9.9453125 36.1328125 C8.96912241 34.4803077 8.01068159 32.81433192 7.15234375 31.09765625 C5.75797516 36.45842048 4.60344394 41.78633027 3.6796875 47.24609375 C3.5517128 47.98469635 3.4237381 48.72329895 3.29188538 49.48428345 C2.75057241 52.60871151 2.21617344 55.73431095 1.68139648 58.85986328 C1.28754336 61.1557215 0.88998239 63.4509158 0.4921875 65.74609375 C0.37238022 66.45438324 0.25257294 67.16267273 0.12913513 67.89242554 C-0.7347873 72.87191836 -0.7347873 72.87191836 -1.84765625 75.09765625 C-6.46765625 75.09765625 -11.08765625 75.09765625 -15.84765625 75.09765625 C-15.09097072 66.9877678 -13.64387931 59.03906369 -12.16015625 51.03515625 C-11.89477353 49.59312924 -11.62955826 48.15107141 -11.36450195 46.70898438 C-10.81185176 43.70647293 -10.25684525 40.7044091 -9.70019531 37.70263672 C-8.98578285 33.84876358 -8.27789989 29.99372324 -7.5717926 26.13832092 C-7.02726657 23.16966461 -6.4790763 20.20169407 -5.92977905 17.23391724 C-5.66702431 15.81151413 -5.40548544 14.38888587 -5.14517212 12.96603394 C-4.78284688 10.98837959 -4.4150042 9.01173845 -4.046875 7.03515625 C-3.73496216 5.34712891 -3.73496216 5.34712891 -3.41674805 3.625 C-2.63181493 0.13910227 -2.63181493 0.13910227 0 0 Z " fill="#000000" transform="translate(1141.84765625,1059.90234375)"/>
<path d="M0 0 C16.17 0 32.34 0 49 0 C48 10 48 10 47 13 C35.78 13.33 24.56 13.66 13 14 C12.01 18.29 11.02 22.58 10 27 C17.92 27 25.84 27 34 27 C33 37 33 37 32 40 C23.75 40 15.5 40 7 40 C6.67 43.63 6.34 47.26 6 51 C5.34 54.63 4.68 58.26 4 62 C14.89 62 25.78 62 37 62 C36 72 36 72 35 75 C18.83 75 2.66 75 -14 75 C-9.61154431 49.94333366 -4.80937144 24.98001885 0 0 Z " fill="#000000" transform="translate(1493,1060)"/>
<path d="M0 0 C16.17 0 32.34 0 49 0 C48 10 48 10 47 13 C35.78 13.33 24.56 13.66 13 14 C12.01 18.29 11.02 22.58 10 27 C17.92 27 25.84 27 34 27 C33 37 33 37 32 40 C23.75 40 15.5 40 7 40 C6.67 43.63 6.34 47.26 6 51 C5.34 54.63 4.68 58.26 4 62 C14.89 62 25.78 62 37 62 C36 72 36 72 35 75 C18.83 75 2.66 75 -14 75 C-9.61154431 49.94333366 -4.80937144 24.98001885 0 0 Z " fill="#000000" transform="translate(1288,1060)"/>
<path d="M0 0 C1.8118033 8.72716953 3.62019462 17.45503722 5.42430782 26.18379974 C6.26225327 30.23746213 7.10134483 34.29088002 7.94311523 38.34375 C8.7563548 42.25946923 9.56650586 46.17581615 10.37457466 50.09260559 C10.68245494 51.58224456 10.99142262 53.07165924 11.30152702 54.56083679 C14.2920365 68.92836454 14.2920365 68.92836454 15 76 C10.05 76 5.1 76 0 76 C-2 65.5 -2 65.5 -2 61 C-16.52544501 59.55781295 -16.52544501 59.55781295 -30.00048828 63.30712891 C-33.09932516 66.71430777 -34.59739631 70.63373581 -36 75 C-37 76 -37 76 -40.16015625 76.09765625 C-41.44792969 76.08605469 -42.73570313 76.07445312 -44.0625 76.0625 C-45.99802734 76.04896484 -45.99802734 76.04896484 -47.97265625 76.03515625 C-48.97167969 76.02355469 -49.97070312 76.01195312 -51 76 C-50.44992441 71.50771602 -48.56937537 68.38444343 -46.125 64.6875 C-41.22944007 57.07310965 -36.59044186 49.32063542 -31.98687744 41.52798462 C-30.74869645 39.43529683 -29.50573954 37.34552165 -28.26123047 35.2565918 C-24.75749953 29.37150948 -21.25869867 23.48712408 -17.88006592 17.52906799 C-16.93530506 15.86750574 -15.97809396 14.21304192 -15.02050781 12.55883789 C-13.86861143 10.56875104 -12.73655424 8.56700321 -11.62792969 6.55249023 C-11.11649414 5.67923096 -10.60505859 4.80597168 -10.078125 3.90625 C-9.64918945 3.14634766 -9.22025391 2.38644531 -8.77832031 1.60351562 C-6.07647167 -0.83274767 -3.50921649 -0.10377922 0 0 Z M-9 26 C-11.17010243 29.81055425 -13.33550475 33.62375836 -15.5 37.4375 C-16.12003906 38.52611328 -16.74007813 39.61472656 -17.37890625 40.73632812 C-18.25869141 42.28803711 -18.25869141 42.28803711 -19.15625 43.87109375 C-19.70087891 44.82943115 -20.24550781 45.78776855 -20.80664062 46.77514648 C-22.07877914 48.72609048 -22.07877914 48.72609048 -22 50 C-16.06 50 -10.12 50 -4 50 C-4.64585181 41.92685234 -5.6913381 33.99173138 -7 26 C-7.66 26 -8.32 26 -9 26 Z " fill="#000000" transform="translate(1693,1059)"/>
<path d="M0 0 C4.95 0 9.9 0 15 0 C15.23710693 1.25659424 15.47421387 2.51318848 15.71850586 3.80786133 C16.59792101 8.46548571 17.4800643 13.12258989 18.36303711 17.77954102 C18.7449683 19.79600137 19.12615734 21.81260243 19.5065918 23.8293457 C20.0532281 26.72644683 20.60252257 29.6230331 21.15234375 32.51953125 C21.3221727 33.42274612 21.49200165 34.325961 21.66697693 35.25654602 C21.90711266 36.5175135 21.90711266 36.5175135 22.15209961 37.80395508 C22.29199814 38.54341873 22.43189667 39.28288239 22.57603455 40.04475403 C23.00624128 42.19874079 23.00624128 42.19874079 24 45 C24.51385254 44.02764404 25.02770508 43.05528809 25.55712891 42.0534668 C27.49097088 38.3945528 29.42577133 34.73614632 31.36083984 31.07788086 C32.1931266 29.50412273 33.02516439 27.9302329 33.85693359 26.35620117 C38.516119 17.53963192 43.19870255 8.74022594 48 0 C53.28 0 58.56 0 64 0 C62.62807169 4.11578493 61.60598717 6.99646758 59.5234375 10.59765625 C58.77670776 11.90162354 58.77670776 11.90162354 58.01489258 13.23193359 C57.47372803 14.16602051 56.93256348 15.10010742 56.375 16.0625 C55.19770691 18.11762425 54.02200179 20.17365878 52.84765625 22.23046875 C52.22391113 23.32278809 51.60016602 24.41510742 50.95751953 25.54052734 C48.22062307 30.3773723 45.54510774 35.2468541 42.8737793 40.12011719 C41.50586322 42.61554615 40.13115593 45.10700777 38.74926758 47.59472656 C38.41425735 48.19793732 38.07924713 48.80114807 37.73408508 49.42263794 C37.40418076 50.01664398 37.07427643 50.61065002 36.734375 51.22265625 C34.45729313 55.32793904 32.23295128 59.45048674 30.078125 63.62109375 C29.23996378 65.18509978 28.40145655 66.74892046 27.5625 68.3125 C27.22259033 69.01165527 26.88268066 69.71081055 26.5324707 70.43115234 C25.50390625 72.30078125 25.50390625 72.30078125 23 75 C20.78672791 75.26359558 20.78672791 75.26359558 18.34350586 75.16870117 C17.5307872 75.14434494 16.71806854 75.11998871 15.88072205 75.09489441 C15.26008377 75.06357925 14.6394455 75.0322641 14 75 C12.16894298 65.96062786 10.3430993 56.92022292 8.52388 47.87846088 C7.67895739 43.67992713 6.83225173 39.48176956 5.98144531 35.28442383 C5.16025262 31.23283489 4.34377763 27.18032121 3.5305481 23.12712669 C3.21964931 21.58186249 2.90705966 20.03693748 2.59274292 18.49236488 C2.15238303 16.32692299 1.71808104 14.16034698 1.28515625 11.9934082 C1.03644775 10.76096878 0.78773926 9.52852936 0.53149414 8.25874329 C0 5 0 5 0 0 Z " fill="#000000" transform="translate(1210,1060)"/>
<path d="M0 0 C1.4883163 0.00574353 2.97660671 0.01875734 4.46484375 0.03515625 C7.08421875 0.05578125 9.70359375 0.07640625 12.40234375 0.09765625 C14.87734375 8.51265625 14.87734375 8.51265625 17.40234375 17.09765625 C18.39234375 14.45765625 19.38234375 11.81765625 20.40234375 9.09765625 C21.11350098 7.42322584 21.83900769 5.75467376 22.58984375 4.09765625 C22.93402344 3.33453125 23.27820312 2.57140625 23.6328125 1.78515625 C24.01373047 0.94984375 24.01373047 0.94984375 24.40234375 0.09765625 C26.88158176 0.0708053 29.36053215 0.05089078 31.83984375 0.03515625 C32.54689453 0.02677734 33.25394531 0.01839844 33.98242188 0.00976562 C35.78927934 0.00112037 37.59621978 0.04545614 39.40234375 0.09765625 C41.34543268 2.04074518 40.79289758 5.65449899 40.9375 8.31640625 C40.98047714 9.04831177 41.02345428 9.78021729 41.06773376 10.53430176 C41.15814307 12.09109938 41.24625339 13.64803192 41.33227539 15.20507812 C41.46277099 17.5602473 41.6008659 19.91487236 41.74023438 22.26953125 C42.62914623 37.6008625 42.62914623 37.6008625 42.40234375 44.09765625 C41.40234375 45.09765625 41.40234375 45.09765625 38.71484375 45.23046875 C37.62171875 45.22789062 36.52859375 45.2253125 35.40234375 45.22265625 C34.30921875 45.22523438 33.21609375 45.2278125 32.08984375 45.23046875 C29.40234375 45.09765625 29.40234375 45.09765625 28.40234375 44.09765625 C28.16706602 41.74778363 27.98847958 39.39209586 27.83984375 37.03515625 C27.75605469 35.74480469 27.67226562 34.45445312 27.5859375 33.125 C27.52535156 32.12597656 27.46476562 31.12695312 27.40234375 30.09765625 C27.13679688 31.01289062 26.87125 31.928125 26.59765625 32.87109375 C26.24445313 34.05960938 25.89125 35.248125 25.52734375 36.47265625 C25.17929688 37.65601563 24.83125 38.839375 24.47265625 40.05859375 C23.40234375 43.09765625 23.40234375 43.09765625 21.40234375 45.09765625 C19.30859375 45.36328125 19.30859375 45.36328125 16.90234375 45.34765625 C16.10828125 45.3528125 15.31421875 45.35796875 14.49609375 45.36328125 C12.40234375 45.09765625 12.40234375 45.09765625 10.40234375 43.09765625 C9.79520572 41.24282171 9.26103323 39.3634424 8.77734375 37.47265625 C8.38675781 35.96832031 8.38675781 35.96832031 7.98828125 34.43359375 C7.79492188 33.66273438 7.6015625 32.891875 7.40234375 32.09765625 C7.34175781 32.95230469 7.28117187 33.80695312 7.21875 34.6875 C7.13496094 35.79222656 7.05117187 36.89695312 6.96484375 38.03515625 C6.88363281 39.13730469 6.80242187 40.23945312 6.71875 41.375 C6.40234375 44.09765625 6.40234375 44.09765625 5.40234375 45.09765625 C3.38270176 45.17009678 1.36067251 45.18142813 -0.66015625 45.16015625 C-1.76488281 45.15113281 -2.86960937 45.14210938 -4.0078125 45.1328125 C-5.28978516 45.11541016 -5.28978516 45.11541016 -6.59765625 45.09765625 C-6.8871981 34.73849232 -6.38824531 24.49508526 -5.66015625 14.16015625 C-5.57330566 12.89719727 -5.48645508 11.63423828 -5.39697266 10.33300781 C-5.3097998 9.15319336 -5.22262695 7.97337891 -5.1328125 6.7578125 C-5.05426025 5.69183838 -4.97570801 4.62586426 -4.89477539 3.52758789 C-4.42092447 -0.3477106 -4.10500566 0.11142795 0 0 Z " fill="#000000" transform="translate(1934.59765625,791.90234375)"/>
<path d="M0 0 C0.88558594 -0.01224609 1.77117187 -0.02449219 2.68359375 -0.03710938 C7.57364883 -0.04804094 11.53655556 0.2718623 16.125 2.1875 C15.61094831 7.15666636 14.89115118 11.47776351 13.125 16.1875 C8.375 15.3125 8.375 15.3125 6.125 14.1875 C-1.00064828 13.48099096 -7.27356552 13.21442187 -13.16796875 17.64453125 C-20.78230593 24.5270557 -25.17238186 32.48173716 -26.11328125 42.80078125 C-26.28237236 48.95035802 -25.9162178 54.27782565 -21.875 59.1875 C-16.31453797 63.36025574 -10.5504875 62.92834513 -3.875 62.1875 C-0.65260057 61.18134997 2.19753425 59.85555257 5.125 58.1875 C5.785 57.8575 6.445 57.5275 7.125 57.1875 C7.125 61.8075 7.125 66.4275 7.125 71.1875 C-0.04898446 74.83329538 -5.03468871 76.40814861 -13.0625 76.5 C-14.3009668 76.54350586 -14.3009668 76.54350586 -15.56445312 76.58789062 C-22.95245397 76.66357542 -28.04405868 74.63240387 -33.625 69.8125 C-41.26016394 60.90480873 -42.73491187 52.6393422 -41.875 41.1875 C-40.10166481 27.85023114 -35.12184665 16.20822825 -24.875 7.1875 C-16.38015673 1.59103599 -9.97154991 0.00719448 0 0 Z " fill="#000000" transform="translate(1762.875,1058.8125)"/>
<path d="M0 0 C1.62215675 0.00333092 1.62215675 0.00333092 3.27708435 0.00672913 C4.49827469 0.00680466 5.71946503 0.00688019 6.97766113 0.00695801 C8.32022644 0.0120654 9.66279134 0.01728141 11.00535583 0.02259827 C12.37156116 0.02446252 13.73776716 0.02588639 15.10397339 0.02688599 C18.70596654 0.03071058 22.30791959 0.04054035 25.90989685 0.05158997 C29.58298703 0.06180536 33.25608368 0.06638388 36.92918396 0.07142639 C44.14079081 0.08216268 51.35236459 0.09923838 58.56394958 0.12025452 C58.42245969 1.72481011 58.27559272 3.32889218 58.12644958 4.93275452 C58.04523865 5.82607483 57.96402771 6.71939514 57.88035583 7.63978577 C57.56394958 10.12025452 57.56394958 10.12025452 56.56394958 13.12025452 C48.97394958 13.45025452 41.38394958 13.78025452 33.56394958 14.12025452 C33.23596375 15.89706604 32.90797791 17.67387756 32.5700531 19.50453186 C31.48690387 25.36834161 30.40095962 31.23162787 29.31309605 37.09456444 C28.65348775 40.65003324 27.99501107 44.20570393 27.33909607 47.76185608 C26.70632116 51.1923191 26.0706058 54.62222516 25.4328289 58.05176163 C25.07128948 60.00018726 24.71281495 61.94918079 24.35437012 63.8981781 C24.13421738 65.0792514 23.91406464 66.26032471 23.6872406 67.47718811 C23.49404739 68.52087555 23.30085419 69.56456299 23.10180664 70.63987732 C22.56394958 73.12025452 22.56394958 73.12025452 21.56394958 75.12025452 C16.94394958 75.12025452 12.32394958 75.12025452 7.56394958 75.12025452 C8.15728585 67.51250315 9.15935563 60.14237083 10.59519958 52.65150452 C10.79117737 51.6087738 10.98715515 50.56604309 11.18907166 49.49171448 C11.60017724 47.30981844 12.01373867 45.12838379 12.42967224 42.94740295 C13.06734911 39.60242208 13.6971213 36.25602428 14.32566833 32.90931702 C14.72755564 30.78162658 15.12988349 28.65401931 15.53269958 26.52650452 C15.72126526 25.52655457 15.90983093 24.52660461 16.10411072 23.49635315 C16.36943604 22.10845581 16.36943604 22.10845581 16.64012146 20.69252014 C16.79476868 19.87964539 16.94941589 19.06677063 17.10874939 18.22926331 C17.56394958 16.12025452 17.56394958 16.12025452 18.56394958 13.12025452 C10.97394958 13.12025452 3.38394958 13.12025452 -4.43605042 13.12025452 C-3.48196006 0.17188537 -3.48196006 0.17188537 0 0 Z " fill="#000000" transform="translate(1416.436050415039,1059.8797454833984)"/>
<path d="M0 0 C1.93166016 0.01740234 1.93166016 0.01740234 3.90234375 0.03515625 C5.19269531 0.04417969 6.48304687 0.05320312 7.8125 0.0625 C8.81152344 0.07410156 9.81054688 0.08570313 10.83984375 0.09765625 C9.50037526 9.15829928 7.95783283 18.16548414 6.2734375 27.16796875 C6.03448257 28.45202606 5.79552765 29.73608337 5.54933167 31.05905151 C5.04894762 33.74664905 4.5471094 36.43396963 4.04418945 39.12109375 C3.40023139 42.56248867 2.76009472 46.00458202 2.1210165 49.44688606 C1.5072102 52.75013088 0.89018301 56.05277143 0.2734375 59.35546875 C-0.07032677 61.20689987 -0.07032677 61.20689987 -0.42103577 63.09573364 C-0.7415818 64.80429031 -0.7415818 64.80429031 -1.06860352 66.54736328 C-1.25576431 67.54961945 -1.44292511 68.55187561 -1.63575745 69.58450317 C-2.16015625 72.09765625 -2.16015625 72.09765625 -3.16015625 75.09765625 C-7.78015625 75.09765625 -12.40015625 75.09765625 -17.16015625 75.09765625 C-16.47195245 66.66968983 -15.04288753 58.45921343 -13.47265625 50.15625 C-13.20718278 48.73808998 -12.94196923 47.31988127 -12.67700195 45.90162659 C-12.12495652 42.95204628 -11.56992997 40.00304758 -11.01269531 37.05444336 C-10.29757129 33.269126 -9.58986247 29.48246571 -8.8842926 25.69535732 C-8.33984015 22.77729229 -7.79164517 19.85994029 -7.24227905 16.94279671 C-6.97958699 15.54550563 -6.71804772 14.14799733 -6.45767212 12.75027275 C-6.09537408 10.80863215 -5.72751905 8.86803089 -5.359375 6.92749023 C-5.04746216 5.27063454 -5.04746216 5.27063454 -4.72924805 3.58030701 C-3.89250191 -0.06998005 -3.88032173 0.11991105 0 0 Z " fill="#000000" transform="translate(1110.16015625,1059.90234375)"/>
<path d="M0 0 C11.55 0 23.1 0 35 0 C35 3.63 35 7.26 35 11 C34.67 11.33 34.34 11.66 34 12 C30.7 12 27.4 12 24 12 C24 22.89 24 33.78 24 45 C19.71 45 15.42 45 11 45 C11 34.11 11 23.22 11 12 C7.7 12 4.4 12 1 12 C0.67 11.67 0.34 11.34 0 11 C0 7.37 0 3.74 0 0 Z " fill="#000000" transform="translate(1889,792)"/>
</svg>
