<?xml version="1.0" encoding="UTF-8"?>
<svg id="Layer_1" data-name="Layer 1" xmlns="http://www.w3.org/2000/svg" viewBox="0 0 3541.68 315.63">
  <defs>
    <style>
      .cls-1 {
        fill: #108fcf;
        stroke-width: 0px;
      }
    </style>
  </defs>
  <g>
    <path class="cls-1" d="M3018.6,112.13c0-21.83-11.73-42.31-31.35-42.31-18.52,0-31.18,18.97-31.18,42.31,0,21.86,11.55,40.07,31.18,40.07s31.35-18.24,31.35-40.07M3064.18,112.13c0,43.62-34.27,70.64-76.94,70.64s-76.67-27.01-76.67-70.64c0-.38.02-.74.02-1.12h-.02V0h45.61v46.47c8.74-4.53,19.6-6.94,31.06-6.94,47.31,0,76.94,28.91,76.94,72.59M3496.11,112.13c0-21.83-11.75-42.31-31.37-42.31s-31.18,20.48-31.18,42.31,11.55,40.07,31.18,40.07,31.37-18.24,31.37-40.07M3464.74,182.77c-42.67,0-76.68-27.01-76.68-70.64s29.37-72.59,76.68-72.59,76.93,28.91,76.93,72.59-34.28,70.64-76.93,70.64M3177.39,95.59c0-10.37-9.51-25.82-26.28-25.82s-28.69,13.5-28.69,25.82h54.97ZM3220.62,107.93c0,7.28-.87,13.73-1.47,16.81h-96.43c1.46,17.68,18.25,26.08,41.6,26.08,15.26,0,29.85-2.32,41.88-5.96l5.88,28.86c-14.67,5.62-33.35,8.77-54.2,8.77-53.14,0-80.93-33.2-80.93-69.8s24.21-73.18,75.72-73.18c47.55,0,67.95,34.48,67.95,68.42M3393.79,42.61h-60.41l-50.13,57.92V0h-45.61v179.69h45.61v-64.71l56.32,64.71h60.33l-68.52-71.81,62.41-65.27ZM3525.89,196.79v43.01l-615.32,75.83v-43.03l615.32-75.81Z"/>
    <path class="cls-1" d="M2847.35,103.38c0,14.68-11.91,26.59-26.61,26.59s-26.6-11.91-26.6-26.59,11.92-26.59,26.6-26.59,26.61,11.9,26.61,26.59"/>
    <polygon class="cls-1" points="2312.53 19.69 2266.29 19.69 2212.74 171.02 2257.17 171.02 2258.97 171.02 2320.19 171.02 2333.77 132.67 2272.55 132.67 2312.53 19.69"/>
    <path class="cls-1" d="M2164.44,16.53c-65.39,0-102.65,62.76-102.65,107.95,0,38.72,29.84,49.71,55.73,49.71,60.92,0,103.61-54.9,103.61-105.27,0-39.79-30.57-52.39-56.68-52.39M2130.71,135.84c-19.46,0-21.13-13.42-21.13-22.68,0-19.68,15.45-58.29,44.29-58.29,8.4,0,20.33,3.67,20.33,24,0,22.28-18.86,56.97-43.49,56.97"/>
    <polygon class="cls-1" points="2472.54 58.04 2486.11 19.69 2445.38 19.69 2399.15 19.69 2357.51 19.69 2343.94 58.04 2385.58 58.04 2345.59 171.02 2391.83 171.02 2431.82 58.04 2472.54 58.04"/>
    <polygon class="cls-1" points="2039.06 19.69 1971.65 118.54 1981.81 19.69 1936.13 19.69 1925.03 171.02 1932.51 171.02 1935.85 171.02 1966.25 171.02 1978.75 171.02 1982.04 171.02 2088.19 19.69 2039.06 19.69"/>
    <polygon class="cls-1" points="2542.99 19.69 2527.19 19.69 2421.03 171.02 2470.17 171.02 2537.58 72.17 2527.42 171.02 2573.1 171.02 2584.2 19.69 2573.38 19.69 2542.99 19.69"/>
    <path class="cls-1" d="M2740.76,62.66s.78-4.16.78-10.92c0-12.73-9.93-35.21-53.83-35.21-46.25,0-68.38,25.25-68.38,53.74,0,11.06,3.91,20.4,14.89,28.36,17.22,12.48,48.31,15.2,48.31,28.59,0,8.96-7.23,13.1-18.68,13.1s-21.16-4.47-21.16-14.73c0-2.19.27-3.26.27-3.26h-46.14s-.83,5.59-.83,11.29c0,18.5,13.75,40.56,60.93,40.56s73.55-28.28,73.55-55.48-28.79-38.28-45.45-43.68c-17.33-5.62-21.49-7.38-21.49-14.83,0-5.87,6.21-11.27,17.56-11.27,16.45,0,15.09,13.73,15.09,13.73h44.58Z"/>
  </g>
  <path class="cls-1" d="M109.07,17.69l-10.86,163.66L202.69,17.69h90.35L102.91,302.48H0L20.24,17.69h88.83ZM1255.05,301.99l.71-284.86h-86.01l-221.25,284.86h90.43l134.88-186.98-7.55,186.98h88.78ZM648.48,17.69l-106.01,284.79h221.38l26.43-73.62h-123.87l77.13-211.17h-95.07ZM833.95,17.69l-25.65,73.17h83.39l-81.22,211.63h93.73l79.5-211.63h79.45l29.65-73.17h-258.84ZM251.92,242.25c5.17,17.78,16.49,32.7,33.86,44.78,17.37,12.18,40.49,18.28,68.96,18.36,32.99.23,63.76-7.11,92.32-22.08,28.52-15.07,52.76-36.48,72.61-64.39,19.8-27.89,32.22-56.82,37.11-86.78,5.88-36-.92-64.93-20.7-86.9-19.81-21.89-48.64-32.98-86.62-33.2-28.25-.13-54.44,5.02-78.32,15.61-24.01,10.54-44.83,24.88-62.26,43.08-17.71,18.28-32.14,39.86-43.31,64.82-8.48,18.47-14.22,36.19-16.91,52.96-2.97,18.05-1.93,36,3.26,53.74ZM369.83,112.7c16.84-20.48,36.15-30.65,57.99-30.55,14.25.1,25.25,5.04,32.98,14.92,7.72,9.94,10.34,23.49,7.67,40.65-2.36,15.5-8.34,31.34-18.05,47.63-9.86,16.23-20.81,28.39-33.23,36.27-12.3,7.99-24.55,11.95-36.59,11.91-14.89-.08-26.03-5.25-33.66-15.48-7.49-10.21-10.2-22.85-7.85-37.93,3.66-24.53,13.85-46.96,30.74-67.42ZM1382.43,175.18s52.66,17.02,63.95,21.52c11.58,4.52,23.96,18.61,14.11,32.16-11.94,16.27-46.71,27.04-67.68,11.66,0,0-11.21-7.18-11.21-34.92h-86.56s-11.25,97.57,97.77,100.2c109.07,2.7,157.9-66.26,161.74-97.55,4.01-33.22-13.24-72.46-83.77-84.08,0,0-54.46-6.2-33.84-42.99,29.18-31.25,67.7-1.74,63.93,18.8h84.73s20.07-91.7-110.36-90.22c-130.43,1.47-133.62,95.41-133.62,95.41,0,0-1.08,56.36,40.81,70.01Z"/>
</svg>