<?xml version="1.0" encoding="UTF-8"?>
<svg version="1.1" xmlns="http://www.w3.org/2000/svg" width="2000" height="2000">
<path d="M0 0 C0.81243668 -0.00832352 1.62487335 -0.01664703 2.46192932 -0.02522278 C5.12156079 -0.04913078 7.78094665 -0.05806759 10.44067383 -0.06469727 C12.30056324 -0.07367249 14.16045196 -0.08279449 16.02033997 -0.09205627 C19.90615591 -0.10849242 23.79188618 -0.11623757 27.67773438 -0.11914062 C32.65460874 -0.12454395 37.63067903 -0.16232694 42.60732555 -0.20788479 C46.44292659 -0.23761963 50.27833218 -0.24486327 54.11403847 -0.24586678 C55.9492699 -0.25006987 57.78450187 -0.26250778 59.61961937 -0.28338432 C62.18321785 -0.31024834 64.74492631 -0.30549114 67.30859375 -0.29296875 C68.06351105 -0.30780304 68.81842834 -0.32263733 69.59622192 -0.33792114 C73.39746393 -0.28505985 75.27513039 0.16764799 78.34468079 2.46885681 C82.35847526 7.85253456 82.99179867 13.80058172 83.94067383 20.27758789 C84.07430328 21.1596138 84.20793274 22.04163971 84.34561157 22.95039368 C84.63382874 24.85702684 84.91963406 26.76402583 85.20327759 28.67134476 C85.65243981 31.68977706 86.10849323 34.70709629 86.56640625 37.72421265 C87.70186594 45.21409054 88.82698184 52.70551197 89.94958496 60.19732666 C90.89954831 66.5364732 91.85477972 72.87477621 92.81777954 79.21195602 C93.26730881 82.18477248 93.70891776 85.15869908 94.15039062 88.13272095 C94.42641973 89.953209 94.70284677 91.77363677 94.97973633 93.59399414 C95.16060287 94.83465889 95.16060287 94.83465889 95.34512329 96.10038757 C95.91762006 99.81064002 96.45310017 103.08723942 98.46020508 106.30639648 C98.78069824 105.86062256 99.10119141 105.41484863 99.43139648 104.95556641 C105.72738471 96.20420958 112.05273428 87.47654476 118.46020508 78.80639648 C122.99773183 72.66624589 127.49987091 66.50284977 131.96020508 60.30639648 C138.13061515 51.73716336 144.38747421 43.23364611 150.66333008 34.74145508 C152.51606245 32.23070064 154.36376817 29.71631494 156.21020508 27.20092773 C156.82774658 26.36037842 157.44528809 25.5198291 158.08154297 24.65380859 C159.2483069 23.06544748 160.41423162 21.47646939 161.57910156 19.88671875 C162.65502787 18.42336212 163.73625241 16.96388474 164.82299805 15.50854492 C165.95793196 13.98198603 167.07566698 12.44254738 168.17944336 10.89331055 C168.75807129 10.10408203 169.33669922 9.31485352 169.93286133 8.50170898 C170.44212158 7.79288574 170.95138184 7.0840625 171.47607422 6.35375977 C175.16477029 2.54750835 179.17461385 0.14716435 184.47076416 -0.19480896 C185.95310572 -0.21528086 187.43585131 -0.2142799 188.91821289 -0.1953125 C190.14146774 -0.20341698 190.14146774 -0.20341698 191.38943481 -0.21168518 C194.06444429 -0.22411596 196.73836597 -0.20772559 199.41333008 -0.18969727 C201.27943986 -0.18985233 203.14554997 -0.19134246 205.01165771 -0.19410706 C208.91197032 -0.1954883 212.81191394 -0.18297424 216.7121582 -0.16015625 C221.71488533 -0.13169341 226.71700338 -0.13453393 231.71977615 -0.14724636 C235.5681887 -0.15419302 239.41645993 -0.14642719 243.26485443 -0.13398933 C245.11006885 -0.12947052 246.95529841 -0.12914178 248.80051422 -0.13305473 C251.37391944 -0.13595904 253.94647718 -0.11950081 256.51977539 -0.09765625 C257.66529373 -0.10440872 257.66529373 -0.10440872 258.83395386 -0.11129761 C261.7248429 -0.07043955 263.92310819 -0.02077161 266.4281311 1.50514221 C269.3125419 6.53923608 267.85434143 13.45371616 266.70672607 18.84820557 C265.62371344 22.83628967 264.43470994 26.77671187 263.20239258 30.72045898 C262.74580966 32.2254334 262.29076385 33.73087486 261.83712769 35.23674011 C260.86400917 38.45602805 259.88078993 41.67197923 258.88928223 44.88565063 C257.30682243 50.01529063 255.74739457 55.15175496 254.19165039 60.28955078 C252.57193707 65.63482249 250.95071991 70.97961314 249.3215332 76.32200623 C244.32610336 92.7034915 239.4351477 109.11502527 234.56933594 125.53540039 C233.21387769 130.10845209 231.85405958 134.68020017 230.4934082 139.25170898 C226.19651046 153.69179945 221.91703974 168.13673243 217.6736145 182.5926342 C216.35834237 187.07043804 215.03927645 191.54712602 213.72011566 196.02378559 C212.48382564 200.22111398 211.25418212 204.4203119 210.02975655 208.62111568 C209.45985556 210.57199579 208.88651195 212.52182398 208.31161499 214.47123718 C207.61815289 216.82281048 206.93006716 219.17597945 206.24868774 221.53108215 C201.71876096 236.80069256 201.71876096 236.80069256 196.46020508 240.30639648 C193.5760498 240.5670929 193.5760498 240.5670929 190.0168457 240.58105469 C189.04318306 240.58872108 189.04318306 240.58872108 188.04985046 240.59654236 C185.90529143 240.61043693 183.76105376 240.60948198 181.61645508 240.60717773 C180.12577189 240.61106434 178.63508982 240.61539893 177.14440918 240.62016296 C174.02063404 240.62762456 170.89697193 240.62733407 167.77319336 240.62207031 C163.76805232 240.61627122 159.76337307 240.63321714 155.75830841 240.65641499 C152.68024995 240.67113757 149.60230313 240.67202615 146.5242157 240.66890526 C145.04740991 240.66941907 143.57059798 240.67466807 142.09382629 240.68471718 C140.03009901 240.69703831 137.96727697 240.69031751 135.90356445 240.67871094 C134.7290271 240.67934036 133.55448975 240.67996979 132.34436035 240.68061829 C129.46020508 240.30639648 129.46020508 240.30639648 127.58227539 239.03181458 C125.45745477 235.76445789 126.01808209 232.01393097 126.46020508 228.30639648 C127.34163937 224.44698903 128.55729738 220.72570795 129.80395508 216.97045898 C130.54457101 214.65382126 131.28271661 212.33639279 132.01879883 210.01831055 C132.41502441 208.77746704 132.81125 207.53662354 133.21948242 206.25817871 C135.46142535 199.16950653 137.52656866 192.02693618 139.61645508 184.89233398 C140.05765624 183.39012072 140.49898137 181.88794387 140.94042969 180.38580322 C142.05532228 176.59059321 143.16827379 172.79481685 144.28076172 168.99890137 C145.43307771 165.06848112 146.58736442 161.13863968 147.74145508 157.20874023 C149.98290064 149.57517124 152.22226923 141.94099516 154.46020508 134.30639648 C151.23754659 137.45372775 148.6688186 140.66983207 146.08520508 144.36889648 C142.02793091 150.12847513 137.89665623 155.82751597 133.71020508 161.49389648 C132.8230481 162.695625 132.8230481 162.695625 131.91796875 163.92163086 C130.0994989 166.38380036 128.27997522 168.8451879 126.46020508 171.30639648 C119.58390077 180.60907808 112.72036417 189.91882794 105.96020508 199.30639648 C101.36657751 205.68381351 96.74257782 212.03785824 92.08520508 218.36889648 C91.52639648 219.13008789 90.96758789 219.8912793 90.3918457 220.67553711 C88.75738652 222.89303763 87.11205836 225.10182631 85.46020508 227.30639648 C84.85660156 228.1157666 84.25299805 228.92513672 83.63110352 229.7590332 C82.72279785 230.95616943 82.72279785 230.95616943 81.79614258 232.17749023 C81.2526416 232.89735107 80.70914063 233.61721191 80.14916992 234.35888672 C76.99570578 237.99507976 73.98707803 240.1009808 69.08764648 240.49926758 C66.08676896 240.58636429 63.0870741 240.64083069 60.08520508 240.68139648 C58.52286133 240.7374707 58.52286133 240.7374707 56.92895508 240.79467773 C52.26366993 240.84837027 49.36198731 240.87654092 45.35864258 238.34545898 C41.41824006 232.03757182 41.00963322 223.92050914 39.94799805 216.65576172 C39.81115601 215.73761185 39.67431396 214.81946198 39.5333252 213.87348938 C39.08661668 210.8711021 38.64446882 207.86806275 38.20239258 204.86499023 C37.89165021 202.77030819 37.58062086 200.67566871 37.26931763 198.58106995 C36.45435303 193.09232962 35.64326709 187.60302306 34.83300781 182.11358643 C34.0040664 176.5023767 33.17143003 170.89171543 32.33911133 165.28100586 C30.70920763 154.29000082 29.083404 143.29839357 27.46020508 132.30639648 C25.30676962 136.09181842 24.25221055 140.17498838 23.09350586 144.34106445 C22.86555328 145.14821396 22.63760071 145.95536346 22.40274048 146.78697205 C21.64985134 149.45645162 20.90268372 152.12749748 20.15551758 154.79858398 C19.63023244 156.66515053 19.10458182 158.53161425 18.57858276 160.39797974 C17.192355 165.3202565 15.81092686 170.24386762 14.43054199 175.16778564 C13.03821019 180.13142337 11.64169942 185.09388458 10.24536133 190.05639648 C8.42624678 196.5219854 6.60764038 202.98771148 4.79475212 209.45504951 C4.32863773 211.1134205 3.86034408 212.7711808 3.38968086 214.42826653 C2.34804694 218.0998405 1.33171256 221.77155858 0.40106201 225.47296143 C0.07881653 226.71366394 -0.24342896 227.95436646 -0.57543945 229.23266602 C-0.83841827 230.29518585 -1.10139709 231.35770569 -1.37234497 232.4524231 C-2.85640659 236.0803922 -4.43313357 237.91589535 -7.53979492 240.30639648 C-10.74038696 240.92785645 -10.74038696 240.92785645 -14.39379883 240.92163086 C-15.06270645 240.92717987 -15.73161407 240.93272888 -16.42079163 240.93844604 C-18.62005451 240.95020656 -20.81724045 240.9260136 -23.01635742 240.90014648 C-24.54902045 240.8984347 -26.0816864 240.89850176 -27.61434937 240.90026855 C-30.82057849 240.89861753 -34.02610651 240.87995705 -37.23217773 240.84838867 C-41.3427092 240.80864385 -45.45232584 240.80435228 -49.56301308 240.8118515 C-52.72519318 240.81491943 -55.88716736 240.80280826 -59.04929733 240.78572083 C-60.56515588 240.77868912 -62.08103776 240.7755665 -63.59691238 240.77641296 C-65.71323188 240.77461659 -67.82845077 240.75325339 -69.94458008 240.72631836 C-71.75063217 240.71368958 -71.75063217 240.71368958 -73.59317017 240.70080566 C-76.53979492 240.30639648 -76.53979492 240.30639648 -78.42904663 239.03224182 C-80.93241379 235.14258961 -79.93201126 230.19641732 -79.03295898 225.86404419 C-78.30977977 223.16573422 -77.50297191 220.50638694 -76.66479492 217.84155273 C-76.35331009 216.81413467 -76.04182526 215.78671661 -75.72090149 214.72816467 C-75.03560347 212.47179972 -74.34475144 210.217116 -73.64907837 207.96392822 C-71.89471508 202.2782834 -70.17610529 196.5818184 -68.45391273 190.8863678 C-67.82305237 188.80164862 -67.19069293 186.7173883 -66.55815125 184.63317871 C-61.45499045 167.80083093 -56.53747067 150.9141879 -51.61068344 134.0295639 C-50.34398613 129.68997858 -49.07529732 125.35097573 -47.80664062 121.01196289 C-46.0117563 114.87277849 -44.21717513 108.73350578 -42.42320156 102.59405518 C-37.76116461 86.63951314 -33.09531633 70.68608852 -28.42162991 54.73495483 C-26.97804688 49.80791998 -25.53594365 44.88045561 -24.09506226 39.95263004 C-23.20649932 36.91504547 -22.31651967 33.87787736 -21.42613602 30.84082603 C-21.01715447 29.44480848 -20.60873388 28.04862644 -20.20093918 26.65226173 C-18.10857316 19.48890359 -15.95923958 12.36650166 -13.53979492 5.30639648 C-15.84979492 4.97639648 -18.15979492 4.64639648 -20.53979492 4.30639648 C-14.16659079 0.58869407 -7.19482404 0.00638611 0 0 Z " fill="#000000" transform="translate(313.539794921875,957.693603515625)"/>
<path d="M0 0 C0.68013328 -0.00594224 1.36026656 -0.01188449 2.06100994 -0.0180068 C4.34541546 -0.03538199 6.62961136 -0.03839735 8.91407776 -0.04138184 C10.55020597 -0.05063866 12.18632987 -0.06068805 13.82244873 -0.07147217 C18.27334642 -0.09773216 22.72418374 -0.11061397 27.17514682 -0.11949348 C29.95877375 -0.12535699 32.74238423 -0.1335673 35.52600288 -0.14250183 C44.24305534 -0.16986361 52.96007016 -0.18918739 61.67716259 -0.19690561 C71.72407005 -0.20585071 81.77043108 -0.24086548 91.81717247 -0.2989068 C99.5906158 -0.34224713 107.36390609 -0.36232005 115.13746887 -0.36498785 C119.77588501 -0.36707766 124.41378794 -0.37875485 129.05207634 -0.41462708 C133.42305553 -0.44777153 137.79314107 -0.45181313 142.16420174 -0.43434906 C143.76045768 -0.43281757 145.35676342 -0.44137097 146.95289612 -0.46126556 C159.20563188 -0.60491156 169.57377472 1.88971562 178.82252502 10.53088379 C191.31937953 24.9231481 192.71593415 42.59849363 192.71266174 60.74890137 C192.71701971 63.44575933 192.75339566 66.14095607 192.79127502 68.83752441 C192.93017756 90.14263309 187.67528268 107.99894766 172.90455627 123.90588379 C172.05893127 124.68963379 171.21330627 125.47338379 170.34205627 126.28088379 C169.81611877 126.80037598 169.29018127 127.31986816 168.74830627 127.85510254 C153.64778457 142.09182321 130.01723101 150.28088379 109.34205627 150.28088379 C110.90865857 155.53360915 114.29661141 159.12641956 117.77955627 163.21838379 C119.05685314 164.74337501 120.33287954 166.26943118 121.60768127 167.79650879 C122.5580426 168.93249512 122.5580426 168.93249512 123.52760315 170.09143066 C126.08299148 173.17495093 128.56594514 176.31133181 131.02955627 179.46838379 C131.69386658 180.31831909 131.69386658 180.31831909 132.37159729 181.1854248 C133.69648514 182.88282368 135.01934174 184.58179105 136.34205627 186.28088379 C138.13114752 188.57457367 139.92289461 190.86615796 141.71705627 193.15588379 C142.38813416 194.01258667 142.38813416 194.01258667 143.07276917 194.88659668 C146.10342665 198.74160158 149.18247692 202.55410893 152.28712463 206.34973145 C154.47378825 209.02609839 156.64632899 211.71373321 158.81715393 214.4029541 C159.80227625 215.61614028 160.79372739 216.82422696 161.79273987 218.02600098 C169.86532207 227.74294492 169.86532207 227.74294492 169.96705627 232.96838379 C169.34205627 236.28088379 169.34205627 236.28088379 168.34205627 237.28088379 C165.92625463 237.42900324 163.53785305 237.51246113 161.11940002 237.55310059 C159.98506783 237.57741402 159.98506783 237.57741402 158.82781982 237.60221863 C151.82776785 237.74280485 144.82642975 237.82062814 137.82527161 237.88113689 C133.12198441 237.92205109 128.42078825 237.98224949 123.71852112 238.09020996 C119.17189746 238.19424878 114.62713585 238.24858746 110.07939148 238.26859474 C108.35052478 238.28448332 106.62172279 238.31761488 104.89353943 238.36874962 C91.38587192 238.74908598 91.38587192 238.74908598 86.34303284 235.12649536 C84.06613819 232.61974185 82.20091574 230.1053284 80.34205627 227.28088379 C79.19603576 225.92976356 78.03293835 224.59263406 76.84205627 223.28088379 C76.28518127 222.64150879 75.72830627 222.00213379 75.15455627 221.34338379 C73.06994463 218.9712395 70.95776983 216.62532314 68.84205627 214.28088379 C65.57814779 210.66412034 62.35414678 207.01698771 59.15455627 203.34338379 C57.06994463 200.9712395 54.95776983 198.62532314 52.84205627 196.28088379 C50.15222197 193.30025658 47.47895263 190.30843146 44.84205627 187.28088379 C42.24303875 184.29860101 39.61390965 181.34581436 36.96705627 178.40588379 C35.84363831 177.15678223 35.84363831 177.15678223 34.69752502 175.88244629 C33.06324874 174.07742472 31.41930884 172.28112405 29.76783752 170.49182129 C28.94670471 169.59721191 28.1255719 168.70260254 27.27955627 167.78088379 C26.52545471 166.96619629 25.77135315 166.15150879 24.99440002 165.31213379 C23.34205627 163.28088379 23.34205627 163.28088379 23.34205627 161.28088379 C22.02205627 161.28088379 20.70205627 161.28088379 19.34205627 161.28088379 C19.11068466 162.1025 18.87931305 162.92411621 18.64093018 163.77062988 C16.45258842 171.53923471 14.26093346 179.30689561 12.06561565 187.0735321 C10.9372835 191.06580692 9.81020492 195.05842652 8.68605042 199.05187988 C7.5997544 202.91066372 6.51008826 206.76848161 5.41814613 210.62567139 C5.00354867 212.09241299 4.59013656 213.55949023 4.17796898 215.0269165 C-1.45654171 235.07948178 -1.45654171 235.07948178 -3.65794373 237.28088379 C-5.88638844 237.38579614 -8.11820296 237.41945591 -10.34910583 237.42614746 C-11.04829636 237.42950607 -11.74748688 237.43286469 -12.46786499 237.43632507 C-14.79035698 237.44586172 -17.11277709 237.44777954 -19.43528748 237.44885254 C-21.0433251 237.45206326 -22.65136242 237.45542718 -24.25939941 237.4589386 C-27.63468605 237.46493668 -31.00994705 237.46677781 -34.38523865 237.46618652 C-38.71775673 237.46608487 -43.05011105 237.47973762 -47.38259029 237.49695873 C-50.70507568 237.5080583 -54.02752123 237.51010636 -57.35002327 237.5095768 C-58.94766873 237.51075999 -60.54531512 237.51520061 -62.14294243 237.52290916 C-64.37454179 237.53266801 -66.60578239 237.52984751 -68.83738708 237.52380371 C-70.74480934 237.52594124 -70.74480934 237.52594124 -72.69076538 237.52812195 C-75.65794373 237.28088379 -75.65794373 237.28088379 -77.65794373 235.28088379 C-78.07128287 229.46290653 -77.23773485 224.71804888 -75.54441833 219.18103027 C-75.20408931 218.02113272 -75.20408931 218.02113272 -74.85688496 216.83780289 C-74.10152528 214.27272845 -73.33091066 211.71250377 -72.56028748 209.15197754 C-72.01688049 207.31721216 -71.47448532 205.48214685 -70.93302917 203.64680481 C-69.77241362 199.71995148 -68.60520397 195.79514409 -67.43269348 191.87182617 C-65.57816894 185.66596866 -63.73832966 179.45582182 -61.90135193 173.24475098 C-60.01422618 166.86602743 -58.12649747 160.48748977 -56.23391724 154.11038208 C-50.68749732 135.41839179 -45.22087803 116.70377972 -39.78337097 97.9798584 C-38.35643381 93.06703403 -36.92570631 88.15531846 -35.49436951 83.24377441 C-31.73916265 70.35435267 -27.98802435 57.46407775 -24.29928589 44.55545044 C-22.99062798 39.97688577 -21.67532266 35.40024394 -20.35951233 30.82373047 C-19.50355933 27.83405025 -18.65893645 24.84133562 -17.81492615 21.8482666 C-17.31137294 20.09516527 -16.80726332 18.34222362 -16.30247498 16.58947754 C-16.09003143 15.82173508 -15.87758789 15.05399261 -15.65870667 14.26298523 C-13.08080157 5.42290174 -9.76334188 0.04758989 0 0 Z M45.6240387 67.82263184 C44.9894574 69.53446655 44.9894574 69.53446655 44.34205627 71.28088379 C44.11187805 71.88807755 43.88169983 72.4952713 43.64454651 73.12086487 C42.92208717 75.14095046 42.31644499 77.17084796 41.72877502 79.23400879 C41.51010269 79.97544128 41.29143036 80.71687378 41.06613159 81.48077393 C40.61009355 83.03574387 40.15908452 84.59219681 39.71290588 86.15002441 C39.02650396 88.54151835 38.32123876 90.92686559 37.61354065 93.31213379 C37.17166365 94.82743211 36.73086927 96.34304665 36.29127502 97.85900879 C36.07992416 98.57357239 35.8685733 99.28813599 35.65081787 100.02435303 C34.41043345 103.70104437 34.41043345 103.70104437 35.34205627 107.28088379 C35.98272034 106.38885254 36.6233844 105.49682129 37.28346252 104.57775879 C38.15647825 103.39496329 39.03021494 102.21269971 39.90455627 101.03088379 C40.53200745 100.15109863 40.53200745 100.15109863 41.1721344 99.25354004 C45.13718923 93.94692531 49.68676365 90.56394264 56.34205627 89.28088379 C58.05095986 89.18796282 59.76296538 89.14567818 61.47438049 89.13903809 C63.00649673 89.1284864 63.00649673 89.1284864 64.56956482 89.11772156 C65.66753387 89.11355728 66.76550293 89.10939301 67.89674377 89.10510254 C70.22617993 89.08190807 72.55560705 89.05779089 74.88502502 89.03283691 C78.55419503 88.9977029 82.22303135 88.96836196 85.89234924 88.95495605 C89.43588999 88.93947896 92.97845972 88.89927464 96.52174377 88.85510254 C98.16262466 88.85796516 98.16262466 88.85796516 99.83665466 88.86088562 C105.95398448 88.76272564 109.71432868 88.43062787 114.34205627 84.28088379 C116.78373766 80.28540516 116.96039806 75.84922983 116.34205627 71.28088379 C114.61237915 67.53540774 114.61237915 67.53540774 111.34205627 65.28088379 C109.36233551 65.15882524 107.37855329 65.1006991 105.39527893 65.07214355 C103.52291061 65.04320763 103.52291061 65.04320763 101.61271667 65.01368713 C100.24386122 64.99888244 98.87499427 64.98510863 97.50611877 64.97229004 C96.8178941 64.96571821 96.12966942 64.95914639 95.42058945 64.95237541 C91.77854721 64.91979024 88.13653416 64.89533591 84.49440002 64.87585449 C81.47931959 64.85802919 78.46517239 64.82319202 75.45045471 64.77331543 C71.81055704 64.71316562 68.17152563 64.6823872 64.53115463 64.67268181 C63.14439691 64.66411776 61.75766294 64.64527546 60.37118912 64.61593819 C52.29927682 64.14407462 52.29927682 64.14407462 45.6240387 67.82263184 Z " fill="#000000" transform="translate(1679.657943725586,958.7191162109375)"/>
<path d="M0 0 C0.68013328 -0.00594224 1.36026656 -0.01188449 2.06100994 -0.0180068 C4.34541546 -0.03538199 6.62961136 -0.03839735 8.91407776 -0.04138184 C10.55020597 -0.05063866 12.18632987 -0.06068805 13.82244873 -0.07147217 C18.27334642 -0.09773216 22.72418374 -0.11061397 27.17514682 -0.11949348 C29.95877375 -0.12535699 32.74238423 -0.1335673 35.52600288 -0.14250183 C44.24305534 -0.16986361 52.96007016 -0.18918739 61.67716259 -0.19690561 C71.72407005 -0.20585071 81.77043108 -0.24086548 91.81717247 -0.2989068 C99.5906158 -0.34224713 107.36390609 -0.36232005 115.13746887 -0.36498785 C119.77588501 -0.36707766 124.41378794 -0.37875485 129.05207634 -0.41462708 C133.42305553 -0.44777153 137.79314107 -0.45181313 142.16420174 -0.43434906 C143.76045768 -0.43281757 145.35676342 -0.44137097 146.95289612 -0.46126556 C159.20563188 -0.60491156 169.57377472 1.88971562 178.82252502 10.53088379 C191.31937953 24.9231481 192.71593415 42.59849363 192.71266174 60.74890137 C192.71701971 63.44575933 192.75339566 66.14095607 192.79127502 68.83752441 C192.92697428 89.39543075 188.31409132 107.92766849 173.61549377 123.07775879 C172.8652594 123.80479004 172.11502502 124.53182129 171.34205627 125.28088379 C170.6330719 125.98729004 169.92408752 126.69369629 169.19361877 127.42150879 C153.46581085 142.29763036 130.7074763 149.35797148 109.34205627 150.28088379 C110.90865857 155.53360915 114.29661141 159.12641956 117.77955627 163.21838379 C119.05685314 164.74337501 120.33287954 166.26943118 121.60768127 167.79650879 C122.5580426 168.93249512 122.5580426 168.93249512 123.52760315 170.09143066 C126.08299148 173.17495093 128.56594514 176.31133181 131.02955627 179.46838379 C131.69386658 180.31831909 131.69386658 180.31831909 132.37159729 181.1854248 C133.69648514 182.88282368 135.01934174 184.58179105 136.34205627 186.28088379 C138.13114752 188.57457367 139.92289461 190.86615796 141.71705627 193.15588379 C142.38813416 194.01258667 142.38813416 194.01258667 143.07276917 194.88659668 C146.10342665 198.74160158 149.18247692 202.55410893 152.28712463 206.34973145 C154.47378825 209.02609839 156.64632899 211.71373321 158.81715393 214.4029541 C159.80227625 215.61614028 160.79372739 216.82422696 161.79273987 218.02600098 C169.86532207 227.74294492 169.86532207 227.74294492 169.96705627 232.96838379 C169.34205627 236.28088379 169.34205627 236.28088379 168.34205627 237.28088379 C165.92625463 237.42900324 163.53785305 237.51246113 161.11940002 237.55310059 C159.98506783 237.57741402 159.98506783 237.57741402 158.82781982 237.60221863 C151.82776785 237.74280485 144.82642975 237.82062814 137.82527161 237.88113689 C133.12198441 237.92205109 128.42078825 237.98224949 123.71852112 238.09020996 C119.17189746 238.19424878 114.62713585 238.24858746 110.07939148 238.26859474 C108.35052478 238.28448332 106.62172279 238.31761488 104.89353943 238.36874962 C91.38587192 238.74908598 91.38587192 238.74908598 86.34303284 235.12649536 C84.06613819 232.61974185 82.20091574 230.1053284 80.34205627 227.28088379 C79.19603576 225.92976356 78.03293835 224.59263406 76.84205627 223.28088379 C76.28518127 222.64150879 75.72830627 222.00213379 75.15455627 221.34338379 C73.06994463 218.9712395 70.95776983 216.62532314 68.84205627 214.28088379 C65.57814779 210.66412034 62.35414678 207.01698771 59.15455627 203.34338379 C57.06994463 200.9712395 54.95776983 198.62532314 52.84205627 196.28088379 C49.57814779 192.66412034 46.35414678 189.01698771 43.15455627 185.34338379 C40.31728055 182.11475969 37.42977955 178.93168469 34.54908752 175.74182129 C32.52129497 173.48074287 30.52043706 171.19944667 28.52955627 168.90588379 C25.09408212 164.94025267 25.09408212 164.94025267 21.34205627 161.28088379 C20.68205627 161.28088379 20.02205627 161.28088379 19.34205627 161.28088379 C19.0834079 162.2035202 18.82475952 163.12615662 18.55827332 164.07675171 C16.12293997 172.76061264 13.68065355 181.44249133 11.23150063 190.12246513 C9.97251486 194.58526149 8.71601116 199.04872606 7.46510315 203.51379395 C6.25839956 207.82072863 5.04527685 212.12580686 3.8276329 216.4296608 C3.36362258 218.07408968 2.90195091 219.71918028 2.44263077 221.36492538 C1.80016547 223.66535389 1.14951438 225.96331447 0.49684143 228.26086426 C0.30766647 228.94562836 0.11849152 229.63039246 -0.07641602 230.33590698 C-0.92408846 233.2901657 -1.44754013 235.07048019 -3.65794373 237.28088379 C-6.61839294 237.53485107 -6.61839294 237.53485107 -10.46263123 237.53967285 C-11.51163605 237.54492981 -11.51163605 237.54492981 -12.58183289 237.55029297 C-14.89897011 237.55911254 -17.21580327 237.55326048 -19.53294373 237.54650879 C-21.1395524 237.54785538 -22.74616067 237.54979586 -24.35276794 237.55230713 C-27.72211074 237.55525869 -31.0913476 237.55095976 -34.4606781 237.54162598 C-38.78533867 237.53023137 -43.10975101 237.53679068 -47.43440247 237.5487709 C-50.75260803 237.55598867 -54.07075448 237.55370198 -57.38896179 237.54851532 C-58.98381072 237.54717859 -60.57866497 237.54882737 -62.17350769 237.55347443 C-64.40023571 237.55853835 -66.62655849 237.55083167 -68.85325623 237.53967285 C-70.12185486 237.53808167 -71.39045349 237.53649048 -72.69749451 237.53485107 C-75.65794373 237.28088379 -75.65794373 237.28088379 -77.65794373 235.28088379 C-78.43404587 227.87441853 -76.23656624 221.43703519 -74.09153748 214.40197754 C-73.70569329 213.107503 -73.32088628 211.81271893 -72.93702698 210.51765442 C-72.10654827 207.72287227 -71.26949464 204.93017809 -70.42726135 202.13891602 C-69.06765831 197.63196208 -67.72351241 193.120491 -66.38230896 188.60803223 C-65.91603221 187.03969844 -65.4497387 185.47136963 -64.98342896 183.90304565 C-64.63215219 182.72151979 -64.63215219 182.72151979 -64.27377892 181.51612473 C-63.54877178 179.0795288 -62.82232924 176.64336486 -62.09552002 174.20730591 C-57.20712964 157.81597586 -52.4249122 141.39425359 -47.654953 124.96813965 C-46.22009749 120.02795495 -44.78135489 115.08890725 -43.34202576 110.15002441 C-38.92534671 94.99069756 -34.52204688 79.82777852 -30.16088867 64.65237427 C-28.4651578 58.75259126 -26.76263567 52.85477467 -25.05834103 46.9574604 C-23.68291125 42.19584354 -22.31657883 37.43174206 -20.95713615 32.66553783 C-20.12005992 29.73896907 -19.27433328 26.81495336 -18.42617035 23.89158058 C-18.03710775 22.54395161 -17.65163984 21.19527861 -17.27011871 19.84549522 C-11.67143308 0.05689059 -11.67143308 0.05689059 0 0 Z M45.6240387 67.82263184 C44.9894574 69.53446655 44.9894574 69.53446655 44.34205627 71.28088379 C44.11187805 71.88807755 43.88169983 72.4952713 43.64454651 73.12086487 C42.92208717 75.14095046 42.31644499 77.17084796 41.72877502 79.23400879 C41.51010269 79.97544128 41.29143036 80.71687378 41.06613159 81.48077393 C40.61009355 83.03574387 40.15908452 84.59219681 39.71290588 86.15002441 C39.02650396 88.54151835 38.32123876 90.92686559 37.61354065 93.31213379 C37.17166365 94.82743211 36.73086927 96.34304665 36.29127502 97.85900879 C36.07992416 98.57357239 35.8685733 99.28813599 35.65081787 100.02435303 C34.41043345 103.70104437 34.41043345 103.70104437 35.34205627 107.28088379 C35.98272034 106.38885254 36.6233844 105.49682129 37.28346252 104.57775879 C38.15647825 103.39496329 39.03021494 102.21269971 39.90455627 101.03088379 C40.53200745 100.15109863 40.53200745 100.15109863 41.1721344 99.25354004 C45.13718923 93.94692531 49.68676365 90.56394264 56.34205627 89.28088379 C58.05095986 89.18796282 59.76296538 89.14567818 61.47438049 89.13903809 C63.00649673 89.1284864 63.00649673 89.1284864 64.56956482 89.11772156 C65.66753387 89.11355728 66.76550293 89.10939301 67.89674377 89.10510254 C70.22617993 89.08190807 72.55560705 89.05779089 74.88502502 89.03283691 C78.55419503 88.9977029 82.22303135 88.96836196 85.89234924 88.95495605 C89.43588999 88.93947896 92.97845972 88.89927464 96.52174377 88.85510254 C98.16262466 88.85796516 98.16262466 88.85796516 99.83665466 88.86088562 C105.95398448 88.76272564 109.71432868 88.43062787 114.34205627 84.28088379 C116.78373766 80.28540516 116.96039806 75.84922983 116.34205627 71.28088379 C114.61237915 67.53540774 114.61237915 67.53540774 111.34205627 65.28088379 C109.36233551 65.15882524 107.37855329 65.1006991 105.39527893 65.07214355 C103.52291061 65.04320763 103.52291061 65.04320763 101.61271667 65.01368713 C100.24386122 64.99888244 98.87499427 64.98510863 97.50611877 64.97229004 C96.8178941 64.96571821 96.12966942 64.95914639 95.42058945 64.95237541 C91.77854721 64.91979024 88.13653416 64.89533591 84.49440002 64.87585449 C81.47931959 64.85802919 78.46517239 64.82319202 75.45045471 64.77331543 C71.81055704 64.71316562 68.17152563 64.6823872 64.53115463 64.67268181 C63.14439691 64.66411776 61.75766294 64.64527546 60.37118912 64.61593819 C52.29927682 64.14407462 52.29927682 64.14407462 45.6240387 67.82263184 Z " fill="#000000" transform="translate(868.6579437255859,958.7191162109375)"/>
<path d="M0 0 C1.85072211 -0.00158448 3.70144353 -0.00578736 5.55215454 -0.01239014 C10.54347743 -0.02259399 15.53396549 0.00427391 20.52515459 0.03866386 C25.75587369 0.06886962 30.986585 0.06639065 36.21737671 0.06799316 C44.98816075 0.07535873 53.75862987 0.10520639 62.52929688 0.15039062 C73.79711631 0.20832026 85.0646837 0.22885703 96.33263588 0.23775482 C106.02211712 0.24570216 115.71154334 0.27069198 125.40098524 0.29844856 C128.5173591 0.30665162 131.63373101 0.31249982 134.75011063 0.31803894 C139.63396869 0.32780336 144.51767281 0.34817311 149.40145493 0.37691498 C151.19699972 0.38597955 152.99256525 0.39164269 154.78813171 0.39373016 C157.23046196 0.39720782 159.67240365 0.41293534 162.11465454 0.43200684 C162.8321417 0.43027387 163.54962886 0.42854091 164.28885806 0.42675543 C169.18320205 0.48447158 169.18320205 0.48447158 171.41162109 2.71289062 C172.82064573 9.66024432 170.93784731 14.57988472 167.16966248 20.34915161 C166.25109215 21.67775711 166.25109215 21.67775711 165.31396484 23.03320312 C164.68688126 23.97670624 164.05979767 24.92020935 163.41371155 25.89230347 C161.41332025 28.88899143 159.38136223 31.86273784 157.34912109 34.83789062 C156.00925059 36.84307949 154.67133987 38.84957937 153.33544922 40.85742188 C152.0384018 42.79221057 150.73962899 44.72584393 149.43896484 46.65820312 C148.84075424 47.54798859 148.24254364 48.43777405 147.62620544 49.35452271 C144.87664476 53.37421484 142.05142818 57.31631437 138.97241211 61.09130859 C138.47894791 61.6966745 137.9854837 62.30204041 137.47706604 62.92575073 C130.95563806 68.5684594 124.7016383 69.28935312 116.30151367 69.1953125 C114.67320869 69.20118126 114.67320869 69.20118126 113.01200867 69.20716858 C110.66689952 69.21312442 108.32175325 69.21000836 105.97666359 69.19874573 C102.26524728 69.18145 98.55460743 69.18900964 94.84318542 69.20300293 C86.97011918 69.22831055 79.09720862 69.22303848 71.22412109 69.21289062 C62.08893666 69.20112729 52.95403539 69.20245899 43.8188839 69.23695374 C40.16206663 69.2440563 36.50584553 69.22736211 32.84907532 69.20983887 C30.6105619 69.21554501 28.37205093 69.22236143 26.13354492 69.23046875 C25.11680695 69.21915421 24.10006897 69.20783966 23.05252075 69.19618225 C18.64543108 69.2344027 16.12547832 69.27525476 12.30400085 71.61804199 C10.0510088 74.11208543 9.48165148 75.18766276 9.03662109 78.52539062 C9.53400864 82.75318476 11.20543186 84.04106626 14.41162109 86.71289062 C17.07443027 88.04429521 19.06635802 87.8182691 22.04785156 87.79467773 C23.23023407 87.78814682 24.41261658 87.78161591 25.63082886 87.77488708 C26.91716217 87.76345169 28.20349548 87.7520163 29.52880859 87.74023438 C30.86483405 87.73328447 32.20086355 87.72707526 33.53689575 87.72157288 C39.20940812 87.69717075 44.8818139 87.66202558 50.55419922 87.61694336 C54.02541503 87.58986046 57.49656644 87.57300983 60.9678688 87.56207466 C62.91294573 87.55298378 64.85795973 87.53262451 66.802948 87.51194763 C82.03516077 87.46955063 96.34091742 89.64473398 107.84912109 100.46289062 C122.79874066 117.19753939 128.63965549 141.10628576 127.82568359 163.22851562 C126.04121992 188.3007914 115.07990108 214.65570877 96.41162109 231.71289062 C89.22929833 237.0580897 83.86866931 239.86577611 74.8891449 239.84660339 C73.72972959 239.85000173 73.72972959 239.85000173 72.54689175 239.85346872 C69.94897071 239.8598144 67.35110177 239.858979 64.75317383 239.8581543 C62.89393038 239.86114536 61.03468756 239.86454777 59.17544556 239.86833191 C54.11986171 239.87717972 49.06429478 239.8795103 44.00870395 239.8801477 C39.79362339 239.88109595 35.57854679 239.88477313 31.36346775 239.88831979 C21.42419457 239.89646671 11.48493044 239.89890374 1.5456543 239.89819336 C-8.72279945 239.89759194 -18.99120076 239.90815591 -29.25964123 239.92393702 C-38.06475815 239.93698924 -46.86985787 239.94237826 -55.6749844 239.94173795 C-60.93887005 239.94148235 -66.2027091 239.94436761 -71.46658516 239.954916 C-76.41347654 239.9645585 -81.36027636 239.9647028 -86.30717087 239.95739937 C-88.12691188 239.95634883 -89.94665848 239.95874398 -91.76638985 239.96475983 C-94.24199826 239.97241662 -96.71728543 239.96787737 -99.19288635 239.96012878 C-99.92040354 239.96527235 -100.64792072 239.97041591 -101.39748389 239.97571534 C-106.36010727 239.94116226 -106.36010727 239.94116226 -108.58837891 237.71289062 C-109.13751391 231.674788 -108.39269589 228.39129383 -105.18603516 223.11523438 C-104.83281189 222.5229303 -104.47958862 221.93062622 -104.11566162 221.32037354 C-102.97709159 219.41993369 -101.81473862 217.53542689 -100.65087891 215.65039062 C-99.86180271 214.34509864 -99.07429011 213.03886016 -98.28833008 211.73168945 C-96.75335567 209.18408531 -95.2094915 206.64227409 -93.65673828 204.10546875 C-91.96872374 201.33674236 -90.30497799 198.55792328 -88.66650391 195.75976562 C-77.19024617 176.16529271 -77.19024617 176.16529271 -70.76229191 174.13655663 C-68.36649036 173.66964757 -66.16491071 173.58221934 -63.72373962 173.57485962 C-62.74653458 173.56940628 -61.76932953 173.56395294 -60.76251221 173.55833435 C-59.69692078 173.55729202 -58.63132935 173.55624969 -57.53344727 173.55517578 C-56.40626785 173.55009506 -55.27908844 173.54501434 -54.11775208 173.53977966 C-51.66998509 173.52907896 -49.22220835 173.52045761 -46.77442741 173.51366043 C-42.90446204 173.5018808 -39.03460873 173.48243219 -35.16468811 173.46054077 C-24.16166913 173.39887872 -13.15866272 173.34455211 -2.15551758 173.31152344 C4.57297994 173.29123783 11.30124398 173.25537724 18.02963066 173.21076584 C20.59771751 173.19656664 23.16584076 173.18787462 25.73396492 173.18471146 C29.31822547 173.17982768 32.90193463 173.15673633 36.48608398 173.12939453 C38.08750748 173.13390373 38.08750748 173.13390373 39.72128296 173.13850403 C41.18286079 173.12186455 41.18286079 173.12186455 42.67396545 173.10488892 C43.94516031 173.0999237 43.94516031 173.0999237 45.24203587 173.09485817 C47.9081725 172.62546999 48.78138097 171.83701221 50.41162109 169.71289062 C51.13675629 167.35593243 51.13675629 167.35593243 51.34912109 164.77539062 C51.46126953 163.92074219 51.57341797 163.06609375 51.68896484 162.18554688 C51.6105241 159.60570875 51.6105241 159.60570875 49.82385254 157.58750916 C46.59117234 155.07529491 44.60776953 155.2258976 40.53857422 155.24633789 C39.85500854 155.24403168 39.17144287 155.24172546 38.46716309 155.23934937 C36.98522442 155.23672321 35.50324809 155.24314893 34.02137756 155.25760078 C31.66501051 155.27955647 29.30992295 155.27574641 26.95349121 155.26512146 C21.09519032 155.24348404 15.23717215 155.26064459 9.37890625 155.28662109 C4.43615808 155.3081696 -0.50576565 155.30974867 -5.44850159 155.28370476 C-7.75084744 155.27940206 -10.05170273 155.30385762 -12.35388184 155.32923889 C-27.31558229 155.34260116 -40.32220094 149.71848615 -51.33837891 139.46289062 C-65.12397337 124.65491954 -70.63098709 104.62675981 -70.00244141 84.77929688 C-69.44906764 75.84352863 -67.1147002 67.26648444 -64.58837891 58.71289062 C-64.36375977 57.9467041 -64.13914063 57.18051758 -63.90771484 56.39111328 C-58.88024809 39.74631978 -51.05200007 25.86027066 -38.58837891 13.71289062 C-37.91033203 13.02582031 -37.23228516 12.33875 -36.53369141 11.63085938 C-25.51902675 1.14179075 -14.44627346 -0.16021197 0 0 Z " fill="#000000" transform="translate(115.58837890625,957.287109375)"/>
<path d="M0 0 C1.28543198 -0.00524185 2.57086395 -0.0104837 3.89524841 -0.0158844 C6.60596594 -0.02478206 9.3163883 -0.02242963 12.02709961 -0.01245117 C15.48946876 -0.00094321 18.95082074 -0.02121603 22.41305637 -0.05036831 C25.73375736 -0.0731855 29.0542226 -0.06626223 32.375 -0.0625 C33.61262589 -0.07373398 34.85025177 -0.08496796 36.12538147 -0.09654236 C42.57138585 -0.04433131 46.75138541 0.02235801 51.62109375 4.43359375 C52.20117188 4.95179688 52.78125 5.47 53.37890625 6.00390625 C60.36741861 13.95084316 62.49530643 23.91665777 64.56103516 34.06079102 C64.81594538 35.30883546 65.0708556 36.5568799 65.33349037 37.84274387 C68.59305943 54.30411427 70.37682754 70.98288503 72.26803923 87.64477992 C72.80398718 92.34495393 73.3537882 97.04351224 73.90151978 101.74232483 C74.81619109 109.60674405 75.72075295 117.47227228 76.61865234 125.33862305 C77.65241445 134.39439432 78.70114422 143.44833608 79.75800169 152.50143903 C80.7833351 161.28649117 81.7995 170.0725791 82.81108475 178.85922432 C83.2381987 182.56849217 83.66819369 186.27740846 84.10056686 189.98606682 C84.60878447 194.34972743 85.10881975 198.71425433 85.60282516 203.07954597 C85.78391211 204.66882488 85.96762689 206.25780721 86.15433502 207.84643555 C89.18814323 233.70867141 89.18814323 233.70867141 86.26733685 238.78762436 C83.87019947 241.18436319 82.1217038 240.96013563 78.77612305 240.9987793 C77.57444992 241.02107101 76.37277679 241.04336273 75.13468933 241.06632996 C73.83469498 241.0676442 72.53470062 241.06895844 71.1953125 241.0703125 C69.84633308 241.08062965 68.49735919 241.09169303 67.14839172 241.10346985 C64.31956556 241.12290835 61.49123374 241.1263227 58.66235352 241.11987305 C55.04676138 241.1138863 51.43374541 241.15803968 47.81868267 241.21576214 C45.03120327 241.25284578 42.24433921 241.25765788 39.45664406 241.25348854 C37.47905186 241.25773997 35.50160621 241.29323513 33.52433777 241.32926941 C24.84156865 241.24050065 24.84156865 241.24050065 21.484375 239.0209198 C18.38693391 235.64859295 16.82615271 232.26296416 16.16015625 227.7109375 C15.99902344 226.67775391 15.83789062 225.64457031 15.671875 224.58007812 C15.53136719 223.52111328 15.39085937 222.46214844 15.24609375 221.37109375 C15.08238281 220.30826172 14.91867187 219.24542969 14.75 218.15039062 C14.01263809 213.19023761 13.54245483 208.45584524 13.62109375 203.43359375 C10.70449277 206.20089158 8.39598518 209.01786282 6.16015625 212.35546875 C5.52335937 213.2990625 4.8865625 214.24265625 4.23046875 215.21484375 C3.575625 216.19453125 2.92078125 217.17421875 2.24609375 218.18359375 C-5.14748674 229.20032325 -5.14748674 229.20032325 -8.54296875 233.94921875 C-8.97303223 234.55540039 -9.4030957 235.16158203 -9.84619141 235.78613281 C-12.5931948 238.73878954 -15.27840073 240.29003356 -19.29434299 240.81391048 C-20.37594165 240.81634038 -21.4575403 240.81877028 -22.57191467 240.8212738 C-23.81830215 240.83117844 -25.06468964 240.84108307 -26.34884644 240.85128784 C-27.72222999 240.84705015 -29.09561259 240.84249232 -30.46899414 240.83764648 C-31.92135646 240.84335126 -33.37371429 240.85031594 -34.82606506 240.85844421 C-38.76399324 240.87637603 -42.70169861 240.87520762 -46.63965535 240.86950183 C-49.9276348 240.86641095 -53.2155714 240.87250109 -56.50354475 240.87854058 C-64.25866574 240.89258336 -72.01367656 240.89102571 -79.76879883 240.87963867 C-87.77089036 240.86814871 -95.77264708 240.88224825 -103.7746945 240.90903515 C-110.64616255 240.93117661 -117.51752538 240.93783332 -124.38902658 240.93195873 C-128.49270456 240.92858528 -132.59616775 240.93103017 -136.69981575 240.94820976 C-140.55689247 240.96365297 -144.41347191 240.95975313 -148.27052879 240.94090462 C-149.68628976 240.93721184 -151.10208737 240.94034732 -152.51781464 240.95079041 C-154.4494661 240.96395211 -156.38124557 240.95007458 -158.31288147 240.93479919 C-159.3941031 240.93458991 -160.47532473 240.93438063 -161.58931065 240.934165 C-165.08448724 240.30698272 -166.26049443 239.24157715 -168.37890625 236.43359375 C-169.56272678 229.12817492 -166.8636902 225.01306025 -162.87890625 219.05859375 C-161.67601836 217.1907896 -160.47424559 215.32226693 -159.2734375 213.453125 C-158.31751709 211.98286865 -158.31751709 211.98286865 -157.34228516 210.48291016 C-153.99856302 205.28978787 -150.78991716 200.01434245 -147.56640625 194.74609375 C-146.21013947 192.54005461 -144.85336376 190.33432829 -143.49609375 188.12890625 C-142.12366259 185.89715714 -140.75126686 183.66538625 -139.37890625 181.43359375 C-131.37066498 168.41024355 -123.35839643 155.38963733 -115.30517578 142.39404297 C-108.30327845 131.09021423 -101.34381629 119.76023334 -94.37890625 108.43359375 C-86.37599954 95.41891883 -78.37199483 82.40513595 -70.32055664 69.42041016 C-66.96168642 64.00040326 -63.61835681 58.57107902 -60.28434753 53.13574219 C-57.23808364 48.17052351 -54.1794641 43.21298618 -51.11767578 38.25732422 C-49.65112552 35.87567294 -48.19784945 33.48677964 -46.75 31.09375 C-40.06047048 20.16896639 -31.95923349 9.48331643 -20.37890625 3.43359375 C-18.99022339 2.66789063 -18.99022339 2.66789063 -17.57348633 1.88671875 C-11.97634881 -0.47596993 -5.97336707 -0.01419199 0 0 Z M-4.37890625 90.43359375 C-9.13612629 96.70052977 -12.90339582 103.69637058 -16.75506592 110.53598022 C-18.49587536 113.62534523 -20.24927292 116.70753307 -22.00390625 119.7890625 C-22.36422943 120.42191666 -22.72455261 121.05477081 -23.09579468 121.70680237 C-26.90902975 128.38811576 -30.82127293 135.00955297 -34.75390625 141.62109375 C-35.41696777 142.73645508 -36.0800293 143.85181641 -36.76318359 145.00097656 C-38.03919827 147.14565171 -39.31570762 149.29003263 -40.59277344 151.43408203 C-43.19535301 155.80467971 -45.79102247 160.17928035 -48.37890625 164.55859375 C-48.79446777 165.25750732 -49.2100293 165.9564209 -49.63818359 166.67651367 C-51.54077333 169.38442836 -51.54077333 169.38442836 -52.37890625 172.43359375 C-33.56890625 172.43359375 -14.75890625 172.43359375 4.62109375 172.43359375 C4.62109375 166.23983431 4.57087811 160.73949918 3.88671875 154.68896484 C3.80869019 153.9852475 3.73066162 153.28153015 3.65026855 152.55648804 C3.39575332 150.27271618 3.13351663 147.98990671 2.87109375 145.70703125 C2.69124953 144.10711997 2.51189572 142.5071535 2.33300781 140.90713501 C1.86441404 136.7276892 1.3892291 132.54901916 0.91259766 128.3704834 C0.42597615 124.09379761 -0.05431146 119.81640094 -0.53515625 115.5390625 C-1.47692742 107.16987032 -2.42567336 98.80148818 -3.37890625 90.43359375 C-3.70890625 90.43359375 -4.03890625 90.43359375 -4.37890625 90.43359375 Z " fill="#000000" transform="translate(1409.37890625,955.56640625)"/>
<path d="M0 0 C1.28543198 -0.00524185 2.57086395 -0.0104837 3.89524841 -0.0158844 C6.60596594 -0.02478206 9.3163883 -0.02242963 12.02709961 -0.01245117 C15.48946876 -0.00094321 18.95082074 -0.02121603 22.41305637 -0.05036831 C25.73375736 -0.0731855 29.0542226 -0.06626223 32.375 -0.0625 C33.61262589 -0.07373398 34.85025177 -0.08496796 36.12538147 -0.09654236 C42.57138585 -0.04433131 46.75138541 0.02235801 51.62109375 4.43359375 C52.20117188 4.95179688 52.78125 5.47 53.37890625 6.00390625 C60.36741861 13.95084316 62.49530643 23.91665777 64.56103516 34.06079102 C64.81594538 35.30883546 65.0708556 36.5568799 65.33349037 37.84274387 C68.59305943 54.30411427 70.37682754 70.98288503 72.26803923 87.64477992 C72.80398718 92.34495393 73.3537882 97.04351224 73.90151978 101.74232483 C74.81619109 109.60674405 75.72075295 117.47227228 76.61865234 125.33862305 C77.65241445 134.39439432 78.70114422 143.44833608 79.75800169 152.50143903 C80.7833351 161.28649117 81.7995 170.0725791 82.81108475 178.85922432 C83.2381987 182.56849217 83.66819369 186.27740846 84.10056686 189.98606682 C84.60878447 194.34972743 85.10881975 198.71425433 85.60282516 203.07954597 C85.78391211 204.66882488 85.96762689 206.25780721 86.15433502 207.84643555 C89.18814323 233.70867141 89.18814323 233.70867141 86.26733685 238.78762436 C83.87019947 241.18436319 82.1217038 240.96013563 78.77612305 240.9987793 C77.57444992 241.02107101 76.37277679 241.04336273 75.13468933 241.06632996 C73.83469498 241.0676442 72.53470062 241.06895844 71.1953125 241.0703125 C69.84633308 241.08062965 68.49735919 241.09169303 67.14839172 241.10346985 C64.31956556 241.12290835 61.49123374 241.1263227 58.66235352 241.11987305 C55.04676138 241.1138863 51.43374541 241.15803968 47.81868267 241.21576214 C45.03120327 241.25284578 42.24433921 241.25765788 39.45664406 241.25348854 C37.47905186 241.25773997 35.50160621 241.29323513 33.52433777 241.32926941 C24.84156865 241.24050065 24.84156865 241.24050065 21.484375 239.0209198 C18.38693391 235.64859295 16.82615271 232.26296416 16.16015625 227.7109375 C15.99902344 226.67775391 15.83789062 225.64457031 15.671875 224.58007812 C15.53136719 223.52111328 15.39085937 222.46214844 15.24609375 221.37109375 C15.08238281 220.30826172 14.91867187 219.24542969 14.75 218.15039062 C14.01263809 213.19023761 13.54245483 208.45584524 13.62109375 203.43359375 C10.70449277 206.20089158 8.39598518 209.01786282 6.16015625 212.35546875 C5.52335938 213.2990625 4.8865625 214.24265625 4.23046875 215.21484375 C3.575625 216.19453125 2.92078125 217.17421875 2.24609375 218.18359375 C-5.14748674 229.20032325 -5.14748674 229.20032325 -8.54296875 233.94921875 C-8.97303223 234.55540039 -9.4030957 235.16158203 -9.84619141 235.78613281 C-12.5931948 238.73878954 -15.27840073 240.29003356 -19.29434299 240.81391048 C-20.37594165 240.81634038 -21.4575403 240.81877028 -22.57191467 240.8212738 C-23.81830215 240.83117844 -25.06468964 240.84108307 -26.34884644 240.85128784 C-27.72222999 240.84705015 -29.09561259 240.84249232 -30.46899414 240.83764648 C-31.92135646 240.84335126 -33.37371429 240.85031594 -34.82606506 240.85844421 C-38.76399324 240.87637603 -42.70169861 240.87520762 -46.63965535 240.86950183 C-49.9276348 240.86641095 -53.2155714 240.87250109 -56.50354475 240.87854058 C-64.25866574 240.89258336 -72.01367656 240.89102571 -79.76879883 240.87963867 C-87.77089036 240.86814871 -95.77264708 240.88224825 -103.7746945 240.90903515 C-110.64616255 240.93117661 -117.51752538 240.93783332 -124.38902658 240.93195873 C-128.49270456 240.92858528 -132.59616775 240.93103017 -136.69981575 240.94820976 C-140.55689247 240.96365297 -144.41347191 240.95975313 -148.27052879 240.94090462 C-149.68628976 240.93721184 -151.10208737 240.94034732 -152.51781464 240.95079041 C-154.4494661 240.96395211 -156.38124557 240.95007458 -158.31288147 240.93479919 C-159.3941031 240.93458991 -160.47532473 240.93438063 -161.58931065 240.934165 C-165.08448724 240.30698272 -166.26049443 239.24157715 -168.37890625 236.43359375 C-169.56272678 229.12817492 -166.8636902 225.01306025 -162.87890625 219.05859375 C-161.67601836 217.1907896 -160.47424559 215.32226693 -159.2734375 213.453125 C-158.31751709 211.98286865 -158.31751709 211.98286865 -157.34228516 210.48291016 C-153.99856302 205.28978787 -150.78991716 200.01434245 -147.56640625 194.74609375 C-146.21013947 192.54005461 -144.85336376 190.33432829 -143.49609375 188.12890625 C-142.12366259 185.89715714 -140.75126686 183.66538625 -139.37890625 181.43359375 C-131.37066498 168.41024355 -123.35839643 155.38963733 -115.30517578 142.39404297 C-108.30327845 131.09021423 -101.34381629 119.76023334 -94.37890625 108.43359375 C-86.37599954 95.41891883 -78.37199483 82.40513595 -70.32055664 69.42041016 C-66.96168642 64.00040326 -63.61835681 58.57107902 -60.28434753 53.13574219 C-57.23808364 48.17052351 -54.1794641 43.21298618 -51.11767578 38.25732422 C-49.65112552 35.87567294 -48.19784945 33.48677964 -46.75 31.09375 C-40.06047048 20.16896639 -31.95923349 9.48331643 -20.37890625 3.43359375 C-18.99022339 2.66789063 -18.99022339 2.66789063 -17.57348633 1.88671875 C-11.97634881 -0.47596993 -5.97336707 -0.01419199 0 0 Z M-1.37890625 90.43359375 C-6.13612629 96.70052977 -9.90339582 103.69637058 -13.75506592 110.53598022 C-15.49587536 113.62534523 -17.24927292 116.70753307 -19.00390625 119.7890625 C-19.36422943 120.42191666 -19.72455261 121.05477081 -20.09579468 121.70680237 C-23.90902975 128.38811576 -27.82127293 135.00955297 -31.75390625 141.62109375 C-32.41696777 142.73645508 -33.0800293 143.85181641 -33.76318359 145.00097656 C-35.03919827 147.14565171 -36.31570762 149.29003263 -37.59277344 151.43408203 C-40.19535301 155.80467971 -42.79102247 160.17928035 -45.37890625 164.55859375 C-45.79446777 165.25750732 -46.2100293 165.9564209 -46.63818359 166.67651367 C-48.54077333 169.38442836 -48.54077333 169.38442836 -49.37890625 172.43359375 C-30.56890625 172.43359375 -11.75890625 172.43359375 7.62109375 172.43359375 C7.62109375 166.23983431 7.57087811 160.73949918 6.88671875 154.68896484 C6.80869019 153.9852475 6.73066162 153.28153015 6.65026855 152.55648804 C6.39575332 150.27271618 6.13351663 147.98990671 5.87109375 145.70703125 C5.69124953 144.10711997 5.51189572 142.5071535 5.33300781 140.90713501 C4.86441404 136.7276892 4.3892291 132.54901916 3.91259766 128.3704834 C3.42597615 124.09379761 2.94568854 119.81640094 2.46484375 115.5390625 C1.52307258 107.16987032 0.57432664 98.80148818 -0.37890625 90.43359375 C-0.70890625 90.43359375 -1.03890625 90.43359375 -1.37890625 90.43359375 Z " fill="#000000" transform="translate(694.37890625,957.56640625)"/>
<path d="M0 0 C0.74435867 -0.00311998 1.48871734 -0.00623996 2.25563234 -0.00945449 C4.75688144 -0.0174498 7.25788898 -0.01110496 9.75914001 -0.00482178 C11.54941958 -0.00753094 13.33969803 -0.01109145 15.12997437 -0.01544189 C19.99757205 -0.02457643 24.86508517 -0.02101743 29.73268437 -0.01468372 C34.81934037 -0.00963003 39.90598899 -0.01431334 44.99264526 -0.01745605 C53.53461511 -0.02109721 62.07655041 -0.01629234 70.61851501 -0.0067749 C80.50525399 0.00411341 90.3919105 0.00058193 100.27864748 -0.01042771 C108.75680787 -0.01949219 117.23494338 -0.02079009 125.71310705 -0.01555037 C130.78136799 -0.01242649 135.84959012 -0.01203284 140.91784859 -0.01862335 C145.68089615 -0.02438412 150.44383696 -0.0204233 155.20687294 -0.00883484 C156.95888339 -0.00618158 158.71090276 -0.00696462 160.4629097 -0.01136017 C162.84657116 -0.01679087 165.22988626 -0.01001201 167.61352539 0 C168.31380594 -0.00446144 169.01408649 -0.00892289 169.73558766 -0.01351953 C174.51497044 0.02566685 174.51497044 0.02566685 176.74327087 2.25396729 C177.43168316 8.77649987 176.18934998 12.29583297 172.55577087 17.62896729 C172.10943298 18.31176758 171.66309509 18.99456787 171.20323181 19.69805908 C165.65998939 28.07656172 159.70974379 36.1746087 153.74327087 44.25396729 C152.45276795 46.00646959 151.1624065 47.75907608 149.87217712 49.51177979 C147.99602763 52.05957561 146.11870049 54.60643799 144.23643494 57.14971924 C143.67794861 57.90470703 143.11946228 58.65969482 142.54405212 59.43756104 C142.05074402 60.10328125 141.55743591 60.76900146 141.04917908 61.45489502 C139.90808319 63.02691514 138.82078183 64.63770085 137.74327087 66.25396729 C134.98036026 66.54283789 132.42939015 66.64688026 129.66514587 66.62506104 C128.01280015 66.64245273 126.36045645 66.66003701 124.70811462 66.67779541 C122.10342034 66.68784552 119.49886259 66.69147096 116.89414978 66.6897583 C114.37990298 66.69334257 111.86670512 66.720748 109.35264587 66.75006104 C108.19451385 66.73778725 108.19451385 66.73778725 107.01298523 66.7252655 C101.81865006 66.79629823 98.63991336 67.52362818 94.74327087 71.25396729 C90.56398928 78.78028105 88.15622027 86.9176455 85.85850525 95.16656494 C85.50492447 96.40882843 85.15134369 97.65109192 84.78704834 98.93099976 C83.82683255 102.30526528 82.87722614 105.68243153 81.9295826 109.06024599 C80.92803039 112.62283776 79.91633727 116.18254809 78.90574646 119.74258423 C76.99251187 126.48802037 75.08796356 133.23587545 73.18672895 139.98470247 C70.82862357 148.35382894 68.46002463 156.71997827 66.09092712 165.08599854 C65.25414901 168.04100669 64.41742601 170.99603043 63.58079529 173.95108032 C63.37744458 174.6693161 63.17409387 175.38755189 62.96458101 176.12755239 C61.39355578 181.67777243 59.82671615 187.22916712 58.26118231 192.78093827 C56.72293283 198.23395803 55.17446097 203.68404577 53.62489319 209.13385773 C52.82250961 211.97353706 52.03460505 214.81673639 51.2518158 217.66186523 C50.82411323 219.18662121 50.39616072 220.71130712 49.96788025 222.23590088 C49.62607727 223.47600922 49.28427429 224.71611755 48.93211365 225.99380493 C47.38528182 230.23568032 45.59627917 233.88573591 41.90031433 236.61477661 C38.95013155 237.48899605 36.30821715 237.49276479 33.23057556 237.48101807 C32.5862558 237.48131012 31.94193604 237.48160217 31.27809143 237.48190308 C29.15697066 237.48051423 27.03620498 237.46497444 24.91514587 237.44927979 C23.44112846 237.44554806 21.96710856 237.44270184 20.49308777 237.44070435 C16.6198284 237.4330804 12.74671983 237.41344264 8.8735199 237.39129639 C4.91866597 237.37081122 0.9637876 237.36169692 -2.99110413 237.35162354 C-10.74638109 237.3301955 -18.50153395 237.29607461 -26.25672913 237.25396729 C-29.69118767 231.89621196 -29.4822689 228.22553514 -28.25672913 222.25396729 C-27.52628557 219.17075929 -26.64750146 216.15032731 -25.71913147 213.12139893 C-25.45996854 212.25342493 -25.20080561 211.38545094 -24.93378925 210.4911747 C-24.07745262 207.6298863 -23.21013521 204.77205476 -22.34266663 201.91412354 C-21.73333342 199.88639769 -21.12468972 197.85846454 -20.51669312 195.83033752 C-19.22900035 191.54014501 -17.93650083 187.25144274 -16.64012146 182.96386719 C-14.62981931 176.31459508 -12.6315594 169.66174196 -10.63490295 163.00836182 C-5.3109242 145.27758342 0.0337445 127.55315163 5.43130493 109.84462547 C6.66407674 105.79696266 7.89151715 101.74767771 9.12016296 97.69876099 C10.03239963 94.70564995 10.9558998 91.71618523 11.88047791 88.72686768 C12.41462027 86.97301732 12.94834596 85.21903999 13.48155212 83.46490479 C13.71758652 82.71534012 13.95362091 81.96577545 14.19680786 81.1934967 C15.55563534 76.67428984 15.96375511 72.91269627 15.74327087 68.25396729 C13.1946694 66.97966655 11.3683805 67.10855015 8.51499939 67.0803833 C7.42369217 67.06689346 6.33238495 67.05340363 5.20800781 67.039505 C4.02468369 67.02906662 2.84135956 67.01862823 1.62217712 67.00787354 C-0.86415461 66.97494165 -3.35048265 66.94172989 -5.83680725 66.90826416 C-9.7717591 66.86077803 -13.70669525 66.81634316 -17.64173889 66.77716064 C-21.42892608 66.73755018 -25.21580438 66.68598354 -29.00282288 66.63287354 C-30.18412277 66.62445938 -31.36542267 66.61604523 -32.58251953 66.6073761 C-34.2242086 66.5824131 -34.2242086 66.5824131 -35.89906311 66.5569458 C-36.86343796 66.54663834 -37.82781281 66.53633087 -38.82141113 66.52571106 C-41.25672913 66.25396729 -41.25672913 66.25396729 -44.25672913 64.25396729 C-45.34765492 59.70135922 -44.65519205 55.37892687 -42.41297913 51.31646729 C-41.54822572 49.94901287 -40.66131629 48.59540386 -39.75672913 47.25396729 C-39.03598206 46.13248291 -39.03598206 46.13248291 -38.30067444 44.98834229 C-37.22984293 43.3254355 -36.15024957 41.66814825 -35.06336975 40.01568604 C-33.08283543 36.98814492 -31.14399912 33.93634096 -29.20985413 30.87896729 C-9.59494552 -0.06132414 -9.59494552 -0.06132414 0 0 Z " fill="#000000" transform="translate(1121.2567291259766,958.7460327148438)"/>
<path d="M0 0 C1.92747574 -0.01902626 1.92747574 -0.01902626 3.89389038 -0.03843689 C5.29856527 -0.03638516 6.70323906 -0.03339689 8.10791016 -0.02954102 C9.54896288 -0.03410229 10.99001342 -0.0394077 12.43106079 -0.04542542 C15.45234 -0.05436273 18.47335499 -0.05192753 21.49462891 -0.04199219 C25.36073422 -0.03051585 29.22592435 -0.05068901 33.09190941 -0.07990932 C36.06885547 -0.09828646 39.04558299 -0.09797571 42.02257156 -0.0922718 C43.44748847 -0.09211869 44.87242029 -0.0981546 46.29728317 -0.11056328 C48.29318967 -0.12549266 50.28924659 -0.11215614 52.28515625 -0.09765625 C53.4197226 -0.09749008 54.55428894 -0.09732391 55.72323608 -0.09715271 C59.47501205 0.51963083 61.14554906 1.6876043 63.77197266 4.40405273 C65.09009491 12.91996153 61.87579722 21.05133566 59.44384766 29.13842773 C58.98218943 30.70633374 58.52165128 32.27456992 58.06214905 33.84310913 C57.07741718 37.19627596 56.08525241 40.54711506 55.08706665 43.89630127 C53.49952153 49.22331718 51.92867441 54.55516583 50.3605957 59.88793945 C48.47644392 66.29227138 46.58884934 72.69556517 44.69647121 79.09747124 C40.3422958 93.83063359 36.0608351 108.58444235 31.79501343 123.34338379 C30.58653376 127.5235329 29.37452449 131.70265357 28.16186523 135.8815918 C24.28965353 149.22862596 20.43090499 162.57935436 16.59962463 175.9382019 C14.97845498 181.59035293 13.35259803 187.24115261 11.72564602 192.89164162 C10.39763919 197.50551381 9.07593167 202.12112862 7.75898361 206.73816872 C6.9475866 209.57716946 6.1302304 212.41442867 5.31121445 215.25123978 C4.75277855 217.19231956 4.20161352 219.13548652 3.65066528 221.07870483 C3.3142099 222.23987823 2.97775452 223.40105164 2.63110352 224.59741211 C2.3427916 225.60396851 2.05447968 226.6105249 1.75743103 227.64758301 C0.17686785 232.06864703 -1.28950121 234.77836865 -5.22802734 237.40405273 C-8.07421875 237.66474915 -8.07421875 237.66474915 -11.57958984 237.67871094 C-13.54677979 237.69300896 -13.54677979 237.69300896 -15.55371094 237.70759583 C-16.98681668 237.70733442 -18.41992243 237.70639751 -19.85302734 237.70483398 C-21.3212903 237.70872066 -22.78955213 237.71305527 -24.2578125 237.71781921 C-27.33450975 237.72528053 -30.41109224 237.72499053 -33.48779297 237.71972656 C-37.4324026 237.71392746 -41.37654336 237.7308735 -45.32107544 237.75407124 C-48.35281118 237.76879444 -51.38443357 237.76968231 -54.41619873 237.76656151 C-55.87067596 237.76707529 -57.32515945 237.77232369 -58.77960205 237.78237343 C-60.81185329 237.79469372 -62.84419918 237.78601945 -64.87646484 237.77636719 C-66.61162354 237.77731133 -66.61162354 237.77731133 -68.38183594 237.77827454 C-71.22802734 237.40405273 -71.22802734 237.40405273 -73.09587097 236.10845947 C-75.29501168 232.79775935 -74.71251031 229.16241729 -74.22802734 225.40405273 C-72.97919174 219.76298308 -71.3797229 214.23644779 -69.77099609 208.68920898 C-69.28272228 206.97279425 -68.7954849 205.2560844 -68.30918884 203.53910828 C-66.97289891 198.8328867 -65.62173923 194.13105085 -64.26767731 189.42991638 C-62.83055176 184.4322918 -61.40582189 179.43113406 -59.97949219 174.43041992 C-57.46711563 165.62862389 -54.94542706 156.82953109 -52.41992188 148.03149414 C-49.07721625 136.38373097 -45.7555367 124.73008346 -42.44092274 113.07430553 C-42.04334677 111.67623991 -41.64576725 110.2781753 -41.2481842 108.88011169 C-41.0505365 108.18509589 -40.85288879 107.49008009 -40.64925176 106.77400321 C-38.06798131 97.69859423 -35.47969754 88.62518477 -32.89011669 79.55214405 C-32.49571881 78.17025216 -32.10132647 76.78835869 -31.7069397 75.40646362 C-31.51232826 74.72458023 -31.31771682 74.04269683 -31.11720806 73.3401503 C-29.74466345 68.52978791 -28.37555029 63.71845649 -27.00765991 58.9067688 C-25.1496291 52.37154916 -23.28290438 45.83887001 -21.41061592 39.30771828 C-20.71798745 36.88676857 -20.02808184 34.46503798 -19.3410778 32.04248619 C-18.39554585 28.71000651 -17.44020996 25.3804881 -16.48242188 22.05151367 C-16.21031985 21.08382585 -15.93821783 20.11613802 -15.65787029 19.11912632 C-10.1252773 0.04828589 -10.1252773 0.04828589 0 0 Z " fill="#000000" transform="translate(1584.22802734375,958.595947265625)"/>
<path d="M0 0 C4.62 0 9.24 0 14 0 C14.44915771 1.11036621 14.89831543 2.22073242 15.36108398 3.36474609 C17.02448839 7.47624399 18.68896082 11.58730879 20.35375977 15.69824219 C21.07475556 17.4790482 21.79545992 19.25997224 22.51586914 21.04101562 C23.55018113 23.59796585 24.58553337 26.15449267 25.62109375 28.7109375 C25.94403915 29.50994476 26.26698456 30.30895203 26.59971619 31.13217163 C28.19708004 35.11169509 28.19708004 35.11169509 30 39 C32.64 26.13 35.28 13.26 38 0 C42.62 0 47.24 0 52 0 C47.71 20.79 43.42 41.58 39 63 C34.38 63 29.76 63 25 63 C24.55084229 61.854104 24.10168457 60.70820801 23.63891602 59.52758789 C21.97732652 55.29054736 20.312312 51.05485989 18.64624023 46.81958008 C17.92459582 44.98368678 17.20389029 43.14742414 16.48413086 41.31079102 C15.4515036 38.67627673 14.41554583 36.04309389 13.37890625 33.41015625 C13.05596085 32.58411392 12.73301544 31.75807159 12.40028381 30.90699768 C11.15639485 27.17924281 11.15639485 27.17924281 9 24 C6.36 36.87 3.72 49.74 1 63 C-3.29 63 -7.58 63 -12 63 C-11.37421777 55.32249266 -10.0966767 47.95977664 -8.49609375 40.4296875 C-8.2533522 39.26744659 -8.01061066 38.10520569 -7.76051331 36.90774536 C-6.9910494 33.22912187 -6.21439467 29.55206055 -5.4375 25.875 C-4.91163186 23.36728759 -4.38623645 20.85947599 -3.86132812 18.3515625 C-2.57968283 12.23321445 -1.29159033 6.11625603 0 0 Z " fill="#000000" transform="translate(1258,1213)"/>
<path d="M0 0 C5.26524445 -0.09943082 10.52993343 -0.17173199 15.79589844 -0.21972656 C17.58440684 -0.23974959 19.37285054 -0.26697654 21.16113281 -0.30175781 C23.74300162 -0.35068955 26.3239995 -0.37306165 28.90625 -0.390625 C30.09112 -0.42159271 30.09112 -0.42159271 31.29992676 -0.45318604 C36.94883057 -0.45543111 41.29900312 0.79129591 46 4 C49.88819356 9.01702395 50.41625651 13.7561524 50 20 C48.8141211 25.62476505 46.4981716 29.20642847 41.984375 32.74609375 C38.80304991 34.75634051 35.58317493 35.86847108 32 37 C32.35191406 37.53625 32.70382812 38.0725 33.06640625 38.625 C37.95012505 46.37774421 41.46705737 54.57529065 45 63 C40.05 63 35.1 63 30 63 C29.113125 61.06125 28.22625 59.1225 27.3125 57.125 C26.20917603 54.7496084 25.10501451 52.37460564 24 50 C23.32130859 48.50533203 23.32130859 48.50533203 22.62890625 46.98046875 C22.21511719 46.10003906 21.80132813 45.21960937 21.375 44.3125 C21.01148438 43.52488281 20.64796875 42.73726562 20.2734375 41.92578125 C18.66593647 39.49480577 17.79247481 38.86742988 15 38 C12.36 38 9.72 38 7 38 C5.35 46.25 3.7 54.5 2 63 C-2.62 63 -7.24 63 -12 63 C-11.37421777 55.32249266 -10.0966767 47.95977664 -8.49609375 40.4296875 C-8.2533522 39.26744659 -8.01061066 38.10520569 -7.76051331 36.90774536 C-6.9910494 33.22912187 -6.21439467 29.55206055 -5.4375 25.875 C-4.91163186 23.36728759 -4.38623645 20.85947599 -3.86132812 18.3515625 C-2.57968344 12.23321739 -1.29214602 6.11613543 0 0 Z M12 11 C11.49453964 13.08201528 10.99583165 15.16567067 10.5 17.25 C10.2215625 18.41015625 9.943125 19.5703125 9.65625 20.765625 C8.86743548 24.10330712 8.86743548 24.10330712 9 28 C21.37950157 28.92526617 21.37950157 28.92526617 32.625 24.77734375 C34.33777519 23.15126499 34.33777519 23.15126499 36 20 C35.9491946 16.21326257 35.9491946 16.21326257 35 13 C30.26101734 10.54846925 25.87937667 10.76845794 20.6875 10.875 C19.43356445 10.88853516 19.43356445 10.88853516 18.15429688 10.90234375 C16.10274031 10.92579011 14.05133223 10.96165734 12 11 Z " fill="#000000" transform="translate(1635,1213)"/>
<path d="M0 0 C5.26524445 -0.09943082 10.52993343 -0.17173199 15.79589844 -0.21972656 C17.58440684 -0.23974959 19.37285054 -0.26697654 21.16113281 -0.30175781 C23.74300162 -0.35068955 26.3239995 -0.37306165 28.90625 -0.390625 C30.09112 -0.42159271 30.09112 -0.42159271 31.29992676 -0.45318604 C36.94883057 -0.45543111 41.29900312 0.79129591 46 4 C49.88819356 9.01702395 50.41625651 13.7561524 50 20 C48.8141211 25.62476505 46.4981716 29.20642847 41.984375 32.74609375 C38.80304991 34.75634051 35.58317493 35.86847108 32 37 C32.35191406 37.53625 32.70382812 38.0725 33.06640625 38.625 C37.95012505 46.37774421 41.46705737 54.57529065 45 63 C40.05 63 35.1 63 30 63 C29.113125 61.06125 28.22625 59.1225 27.3125 57.125 C26.20917603 54.7496084 25.10501451 52.37460564 24 50 C23.32130859 48.50533203 23.32130859 48.50533203 22.62890625 46.98046875 C22.21511719 46.10003906 21.80132813 45.21960937 21.375 44.3125 C21.01148438 43.52488281 20.64796875 42.73726562 20.2734375 41.92578125 C18.66593647 39.49480577 17.79247481 38.86742988 15 38 C12.36 38 9.72 38 7 38 C5.35 46.25 3.7 54.5 2 63 C-2.62 63 -7.24 63 -12 63 C-11.37421777 55.32249266 -10.0966767 47.95977664 -8.49609375 40.4296875 C-8.2533522 39.26744659 -8.01061066 38.10520569 -7.76051331 36.90774536 C-6.9910494 33.22912187 -6.21439467 29.55206055 -5.4375 25.875 C-4.91163186 23.36728759 -4.38623645 20.85947599 -3.86132812 18.3515625 C-2.57968344 12.23321739 -1.29214602 6.11613543 0 0 Z M12 11 C11.49453964 13.08201528 10.99583165 15.16567067 10.5 17.25 C10.2215625 18.41015625 9.943125 19.5703125 9.65625 20.765625 C8.86743548 24.10330712 8.86743548 24.10330712 9 28 C21.37950157 28.92526617 21.37950157 28.92526617 32.625 24.77734375 C34.33777519 23.15126499 34.33777519 23.15126499 36 20 C35.9491946 16.21326257 35.9491946 16.21326257 35 13 C30.26101734 10.54846925 25.87937667 10.76845794 20.6875 10.875 C19.43356445 10.88853516 19.43356445 10.88853516 18.15429688 10.90234375 C16.10274031 10.92579011 14.05133223 10.96165734 12 11 Z " fill="#000000" transform="translate(1450,1213)"/>
<path d="M0 0 C15.84 0 31.68 0 48 0 C47.34 3.63 46.68 7.26 46 11 C34.78 11.33 23.56 11.66 12 12 C11.01 15.96 10.02 19.92 9 24 C19.89 24 30.78 24 42 24 C41.34 27.63 40.68 31.26 40 35 C23.665 35.495 23.665 35.495 7 36 C5.68 41.28 4.36 46.56 3 52 C14.88 52 26.76 52 39 52 C38 62 38 62 37 63 C35.43452952 63.09326716 33.86487228 63.11745582 32.29663086 63.11352539 C31.29566879 63.11344986 30.29470673 63.11337433 29.26341248 63.11329651 C28.1748848 63.10813522 27.08635712 63.10297394 25.96484375 63.09765625 C24.85645645 63.0962413 23.74806915 63.09482635 22.60609436 63.09336853 C19.04986931 63.08775033 15.49370617 63.07519475 11.9375 63.0625 C9.53320403 63.05748734 7.12890708 63.05292403 4.72460938 63.04882812 C-1.18361504 63.03777499 -7.0918031 63.02101917 -13 63 C-11.45372343 55.37622307 -9.90647664 47.75264375 -8.35799503 40.12931442 C-7.6389846 36.58939851 -6.92030702 33.04941571 -6.20239258 29.50927734 C-5.50940241 26.09210722 -4.81553472 22.67511636 -4.12106133 19.25824738 C-3.72772826 17.32184481 -3.33530137 15.38525825 -2.94288635 13.44866943 C-2.70271286 12.26774719 -2.46253937 11.08682495 -2.21508789 9.87011719 C-2.00412979 8.83087097 -1.79317169 7.79162476 -1.57582092 6.72088623 C-1.09940158 4.46969532 -0.55808685 2.23234742 0 0 Z " fill="#000000" transform="translate(1573,1213)"/>
<path d="M0 0 C15.84 0 31.68 0 48 0 C47.34 3.63 46.68 7.26 46 11 C34.78 11.33 23.56 11.66 12 12 C11.01 15.96 10.02 19.92 9 24 C19.89 24 30.78 24 42 24 C41.34 27.63 40.68 31.26 40 35 C23.665 35.495 23.665 35.495 7 36 C5.68 41.28 4.36 46.56 3 52 C14.88 52 26.76 52 39 52 C38 62 38 62 37 63 C35.43452952 63.09326716 33.86487228 63.11745582 32.29663086 63.11352539 C31.29566879 63.11344986 30.29470673 63.11337433 29.26341248 63.11329651 C28.1748848 63.10813522 27.08635712 63.10297394 25.96484375 63.09765625 C24.85645645 63.0962413 23.74806915 63.09482635 22.60609436 63.09336853 C19.04986931 63.08775033 15.49370617 63.07519475 11.9375 63.0625 C9.53320403 63.05748734 7.12890708 63.05292403 4.72460938 63.04882812 C-1.18361504 63.03777499 -7.0918031 63.02101917 -13 63 C-11.45372343 55.37622307 -9.90647664 47.75264375 -8.35799503 40.12931442 C-7.6389846 36.58939851 -6.92030702 33.04941571 -6.20239258 29.50927734 C-5.50940241 26.09210722 -4.81553472 22.67511636 -4.12106133 19.25824738 C-3.72772826 17.32184481 -3.33530137 15.38525825 -2.94288635 13.44866943 C-2.70271286 12.26774719 -2.46253937 11.08682495 -2.21508789 9.87011719 C-2.00412979 8.83087097 -1.79317169 7.79162476 -1.57582092 6.72088623 C-1.09940158 4.46969532 -0.55808685 2.23234742 0 0 Z " fill="#000000" transform="translate(1388,1213)"/>
<path d="M0 0 C3.11150572 1.24460229 4.65002288 3.23486901 6.85546875 5.7421875 C7.726875 6.72574219 8.59828125 7.70929687 9.49609375 8.72265625 C12.88168743 12.65896331 16.08879814 16.73541438 19.2578125 20.84765625 C19.88816406 21.51410156 20.51851562 22.18054688 21.16796875 22.8671875 C24.13407155 23.20835318 24.13407155 23.20835318 25.62255859 21.50952148 C26.11965332 20.88376221 26.61674805 20.25800293 27.12890625 19.61328125 C27.68320313 18.92298828 28.2375 18.23269531 28.80859375 17.52148438 C29.3809375 16.78994141 29.95328125 16.05839844 30.54296875 15.3046875 C31.10757812 14.60021484 31.6721875 13.89574219 32.25390625 13.16992188 C34.92862244 9.81104795 37.41735934 6.47202113 39.70703125 2.83984375 C40.92519531 1.36837891 40.92519531 1.36837891 42.16796875 -0.1328125 C44.14796875 -0.1328125 46.12796875 -0.1328125 48.16796875 -0.1328125 C48.16796875 17.6871875 48.16796875 35.5071875 48.16796875 53.8671875 C44.20796875 53.8671875 40.24796875 53.8671875 36.16796875 53.8671875 C35.67296875 44.9571875 35.67296875 44.9571875 35.16796875 35.8671875 C32.12785525 39.47128587 32.12785525 39.47128587 29.12646484 43.10742188 C26.91593004 45.63218598 25.45361871 46.80172605 22.16796875 47.5546875 C18.14393288 46.63251261 16.29559639 44.44177037 13.79296875 41.3671875 C12.26671875 39.5521875 10.74046875 37.7371875 9.16796875 35.8671875 C8.83796875 42.1371875 8.50796875 48.4071875 8.16796875 54.8671875 C4.20796875 54.8671875 0.24796875 54.8671875 -3.83203125 54.8671875 C-3.83203125 37.0471875 -3.83203125 19.2271875 -3.83203125 0.8671875 C-1.83203125 -0.1328125 -1.83203125 -0.1328125 0 0 Z " fill="#000000" transform="translate(1936.83203125,959.1328125)"/>
<path d="M0 0 C5.61 0 11.22 0 17 0 C20.3 20.79 23.6 41.58 27 63 C22.38 63 17.76 63 13 63 C12.01 56.565 12.01 56.565 11 50 C3.08 49.67 -4.84 49.34 -13 49 C-13.99 51.475 -13.99 51.475 -15 54 C-16.59636727 57.04277276 -18.30436555 60.01032873 -20 63 C-24.95 63 -29.9 63 -35 63 C-28.8129727 51.23251671 -22.32608237 39.65481358 -15.75830078 28.09619141 C-12.74894657 22.79702033 -9.7495698 17.49221349 -6.75 12.1875 C-6.18901611 11.19685547 -5.62803223 10.20621094 -5.05004883 9.18554688 C-4.53337646 8.27224609 -4.0167041 7.35894531 -3.484375 6.41796875 C-2.79939941 5.20790161 -2.79939941 5.20790161 -2.10058594 3.97338867 C-1.3708596 2.66496409 -0.66999633 1.33999266 0 0 Z M5 16 C3.15984502 19.2878978 1.32904953 22.58091326 -0.5 25.875 C-1.28697266 27.28072266 -1.28697266 27.28072266 -2.08984375 28.71484375 C-2.83427734 30.05869141 -2.83427734 30.05869141 -3.59375 31.4296875 C-4.05458984 32.25710449 -4.51542969 33.08452148 -4.99023438 33.93701172 C-6.14654317 35.91658375 -6.14654317 35.91658375 -6 38 C-0.72 38 4.56 38 10 38 C9.01 30.74 8.02 23.48 7 16 C6.34 16 5.68 16 5 16 Z " fill="#000000" transform="translate(1744,1213)"/>
<path d="M0 0 C6.45525353 4.03453345 10.66996687 7.47371829 13 14.875 C13 16.195 13 17.515 13 18.875 C10.00519083 19.7473412 7.36424089 19.98329766 4.25 19.9375 C3.45078125 19.92847656 2.6515625 19.91945313 1.828125 19.91015625 C1.22484375 19.89855469 0.6215625 19.88695312 0 19.875 C-0.556875 18.76125 -1.11375 17.6475 -1.6875 16.5 C-3.07825104 14.11447565 -3.87581845 12.96015307 -6.1875 11.375 C-11.26586759 10.47217909 -15.95083215 11.08327606 -20.75 12.9375 C-26.54291027 17.9258394 -29.6436148 24.99620289 -30.3359375 32.53125 C-30.34882812 33.7996875 -30.36171875 35.068125 -30.375 36.375 C-30.40335938 37.6434375 -30.43171875 38.911875 -30.4609375 40.21875 C-29.92595433 44.46234532 -28.66593596 46.5745516 -26 49.875 C-22.38340241 52.18560402 -19.20102121 52.09361872 -14.99609375 51.41796875 C-10.8727568 50.29635655 -7.84655283 48.26026826 -5.625 44.625 C-5.41875 44.0475 -5.2125 43.47 -5 42.875 C0.15171623 42.78461901 4.91913204 43.02818867 10 43.875 C6.82353089 52.52205479 2.30720152 57.60697393 -5.8515625 61.9296875 C-13.03559267 65.09066078 -23.05203043 65.10091485 -30.6171875 63.2265625 C-36.88612441 60.37261068 -40.6493201 55.35124648 -43.875 49.4375 C-47.36507109 38.78031864 -45.55830717 26.09944184 -40.7109375 16.2578125 C-36.19249321 8.11494765 -30.76968048 2.79472226 -21.94921875 -0.43359375 C-15.09075143 -2.04147284 -6.70593286 -2.52797017 0 0 Z " fill="#000000" transform="translate(1831,1213.125)"/>
<path d="M0 0 C4.29 0 8.58 0 13 0 C14.57458923 5.14588802 15.63643275 10.21151818 16.47265625 15.5234375 C16.6646183 16.70360947 16.6646183 16.70360947 16.86045837 17.90762329 C17.26510658 20.39612702 17.66444896 22.88543307 18.0625 25.375 C18.59045063 28.67524367 19.12367314 31.97457146 19.66015625 35.2734375 C19.83986717 36.41394058 19.83986717 36.41394058 20.02320862 37.57748413 C20.33468004 41.08614789 20.33468004 41.08614789 22 44 C22.40726318 43.23558594 22.81452637 42.47117187 23.23413086 41.68359375 C38.20669506 13.60132352 38.20669506 13.60132352 46 0 C50.62 0 55.24 0 60 0 C58.478658 3.803355 56.90185917 7.21296295 54.98046875 10.8046875 C54.37630127 11.93495361 53.77213379 13.06521973 53.1496582 14.22973633 C52.49585785 15.44496003 51.84179942 16.66004493 51.1875 17.875 C50.85696625 18.49071869 50.5264325 19.10643738 50.18588257 19.74081421 C43.63965977 31.93086962 36.87561685 43.99271244 30 56 C29.21213254 57.37884509 28.4243593 58.75774403 27.63671875 60.13671875 C27.09660156 61.08160156 26.55648438 62.02648438 26 63 C21.05 63 16.1 63 11 63 C9.68135225 59.04405675 8.65972542 55.74377676 7.94677734 51.73242188 C7.76674164 50.73118286 7.58670593 49.72994385 7.4012146 48.69836426 C7.21467316 47.63259155 7.02813171 46.56681885 6.8359375 45.46875 C6.63900299 44.35947144 6.44206848 43.25019287 6.23916626 42.1072998 C5.82514837 39.7677336 5.41344415 37.42775692 5.00390625 35.08740234 C4.37699511 31.51138048 3.73976319 27.93730346 3.1015625 24.36328125 C2.69989678 22.08604748 2.29883476 19.80870714 1.8984375 17.53125 C1.7078476 16.46547729 1.51725769 15.39970459 1.32089233 14.30163574 C1.14716095 13.30039673 0.97342957 12.29915771 0.79443359 11.26757812 C0.64058197 10.3929895 0.48673035 9.51840088 0.32821655 8.61730957 C0 6 0 6 0 0 Z " fill="#000000" transform="translate(1319,1213)"/>
<path d="M0 0 C16.83 0 33.66 0 51 0 C50.34 3.63 49.68 7.26 49 11 C42.73 11 36.46 11 30 11 C29.67 13.97 29.34 16.94 29 20 C28.7172338 21.66180368 28.40980485 23.31993487 28.06030273 24.96899414 C27.8801915 25.8292067 27.70008026 26.68941925 27.51451111 27.57569885 C27.32280838 28.46981979 27.13110565 29.36394073 26.93359375 30.28515625 C26.63606956 31.69769936 26.63606956 31.69769936 26.33253479 33.13877869 C25.70486505 36.11421674 25.07128582 39.08835938 24.4375 42.0625 C24.00807059 44.09301589 23.57903035 46.12361413 23.15039062 48.15429688 C22.10475579 53.10382766 21.05382319 58.05220645 20 63 C15.38 63 10.76 63 6 63 C6.62925851 56.45513151 7.68869785 50.14061525 9.06640625 43.71484375 C9.26475571 42.77314835 9.46310516 41.83145294 9.66746521 40.86122131 C10.29513495 37.88578326 10.92871418 34.91164062 11.5625 31.9375 C11.99192941 29.90698411 12.42096965 27.87638587 12.84960938 25.84570312 C13.89524421 20.89617234 14.94617681 15.94779355 16 11 C10.06 11 4.12 11 -2 11 C-1.34 7.37 -0.68 3.74 0 0 Z " fill="#000000" transform="translate(1511,1213)"/>
<path d="M0 0 C14.52 0 29.04 0 44 0 C44 4.29 44 8.58 44 13 C39.38 13 34.76 13 30 13 C30 26.2 30 39.4 30 53 C25.05 53 20.1 53 15 53 C15 39.8 15 26.6 15 13 C10.05 13 5.1 13 0 13 C0 8.71 0 4.42 0 0 Z " fill="#000000" transform="translate(1884,961)"/>
<path d="M0 0 C4.62 0 9.24 0 14 0 C9.71 20.79 5.42 41.58 1 63 C-3.62 63 -8.24 63 -13 63 C-12.32497246 55.73105942 -11.02633435 48.7042693 -9.53125 41.5625 C-9.29088013 40.40121582 -9.05051025 39.23993164 -8.80285645 38.04345703 C-8.29719869 35.60586001 -7.78947384 33.16869096 -7.27978516 30.73193359 C-6.49692227 26.98527046 -5.72265024 23.23690137 -4.94921875 19.48828125 C-4.456239 17.11708145 -3.96276707 14.7459839 -3.46875 12.375 C-3.23643677 11.24908447 -3.00412354 10.12316895 -2.76477051 8.96313477 C-2.54784546 7.93115967 -2.33092041 6.89918457 -2.10742188 5.8359375 C-1.91724487 4.92376465 -1.72706787 4.0115918 -1.53112793 3.07177734 C-1 1 -1 1 0 0 Z " fill="#000000" transform="translate(1230,1213)"/>
</svg>
